<mxfile host="app.diagrams.net" modified="2023-11-11T08:42:06.691Z" agent="Mozilla/5.0 (Macintosh; Intel Mac OS X 10_15_7) AppleWebKit/537.36 (KHTML, like Gecko) Chrome/119.0.0.0 Safari/537.36" etag="h8SGcCBy-Vd23IbIQJ08" version="21.5.1" type="device">
  <diagram name="Page-1" id="FQ6LO9YzTcKub8JvZrBw">
    <mxGraphModel dx="1314" dy="867" grid="1" gridSize="10" guides="1" tooltips="1" connect="1" arrows="1" fold="1" page="1" pageScale="1" pageWidth="850" pageHeight="1100" math="0" shadow="0">
      <root>
        <mxCell id="0" />
        <mxCell id="1" parent="0" />
        <mxCell id="wBUlopVAqguZ6O6uspOy-1" value="MLFLOW Server&lt;br&gt;&lt;br&gt;&lt;br&gt;&lt;br&gt;&lt;br&gt;&lt;br&gt;&lt;br&gt;" style="rounded=0;whiteSpace=wrap;html=1;" vertex="1" parent="1">
          <mxGeometry x="285" y="40" width="320" height="180" as="geometry" />
        </mxCell>
        <mxCell id="wBUlopVAqguZ6O6uspOy-4" value="Log Experiments" style="edgeStyle=orthogonalEdgeStyle;rounded=0;orthogonalLoop=1;jettySize=auto;html=1;entryX=0;entryY=0.5;entryDx=0;entryDy=0;" edge="1" parent="1" source="wBUlopVAqguZ6O6uspOy-2" target="wBUlopVAqguZ6O6uspOy-15">
          <mxGeometry relative="1" as="geometry" />
        </mxCell>
        <mxCell id="wBUlopVAqguZ6O6uspOy-10" value="Commit Work(save)" style="edgeStyle=orthogonalEdgeStyle;rounded=0;orthogonalLoop=1;jettySize=auto;html=1;entryX=0;entryY=0.4;entryDx=0;entryDy=0;entryPerimeter=0;" edge="1" parent="1" source="wBUlopVAqguZ6O6uspOy-2" target="wBUlopVAqguZ6O6uspOy-3">
          <mxGeometry relative="1" as="geometry">
            <Array as="points">
              <mxPoint x="85" y="434" />
            </Array>
          </mxGeometry>
        </mxCell>
        <mxCell id="wBUlopVAqguZ6O6uspOy-2" value="COLAB" style="rounded=0;whiteSpace=wrap;html=1;" vertex="1" parent="1">
          <mxGeometry x="15" y="130" width="120" height="60" as="geometry" />
        </mxCell>
        <mxCell id="wBUlopVAqguZ6O6uspOy-11" style="edgeStyle=orthogonalEdgeStyle;rounded=0;orthogonalLoop=1;jettySize=auto;html=1;" edge="1" parent="1" source="wBUlopVAqguZ6O6uspOy-3" target="wBUlopVAqguZ6O6uspOy-6">
          <mxGeometry relative="1" as="geometry" />
        </mxCell>
        <mxCell id="wBUlopVAqguZ6O6uspOy-54" style="edgeStyle=orthogonalEdgeStyle;rounded=0;orthogonalLoop=1;jettySize=auto;html=1;" edge="1" parent="1" source="wBUlopVAqguZ6O6uspOy-3" target="wBUlopVAqguZ6O6uspOy-13">
          <mxGeometry relative="1" as="geometry" />
        </mxCell>
        <mxCell id="wBUlopVAqguZ6O6uspOy-3" value="Github" style="rounded=0;whiteSpace=wrap;html=1;" vertex="1" parent="1">
          <mxGeometry x="155" y="410" width="120" height="60" as="geometry" />
        </mxCell>
        <mxCell id="wBUlopVAqguZ6O6uspOy-12" style="edgeStyle=orthogonalEdgeStyle;rounded=0;orthogonalLoop=1;jettySize=auto;html=1;" edge="1" parent="1" source="wBUlopVAqguZ6O6uspOy-6" target="wBUlopVAqguZ6O6uspOy-15">
          <mxGeometry relative="1" as="geometry">
            <mxPoint x="445" y="220" as="targetPoint" />
          </mxGeometry>
        </mxCell>
        <mxCell id="wBUlopVAqguZ6O6uspOy-6" value="Model Retraining&lt;br&gt;CI/CD" style="rounded=0;whiteSpace=wrap;html=1;" vertex="1" parent="1">
          <mxGeometry x="300" y="310" width="120" height="60" as="geometry" />
        </mxCell>
        <mxCell id="wBUlopVAqguZ6O6uspOy-13" value="Streamlit App Serve" style="rounded=0;whiteSpace=wrap;html=1;" vertex="1" parent="1">
          <mxGeometry x="675" y="130" width="120" height="60" as="geometry" />
        </mxCell>
        <mxCell id="wBUlopVAqguZ6O6uspOy-17" style="edgeStyle=orthogonalEdgeStyle;rounded=0;orthogonalLoop=1;jettySize=auto;html=1;" edge="1" parent="1" source="wBUlopVAqguZ6O6uspOy-15" target="wBUlopVAqguZ6O6uspOy-16">
          <mxGeometry relative="1" as="geometry" />
        </mxCell>
        <mxCell id="wBUlopVAqguZ6O6uspOy-15" value="Experiment Tracking" style="rounded=0;whiteSpace=wrap;html=1;" vertex="1" parent="1">
          <mxGeometry x="315" y="130" width="90" height="60" as="geometry" />
        </mxCell>
        <mxCell id="wBUlopVAqguZ6O6uspOy-19" style="edgeStyle=orthogonalEdgeStyle;rounded=0;orthogonalLoop=1;jettySize=auto;html=1;entryX=0;entryY=0.5;entryDx=0;entryDy=0;" edge="1" parent="1" source="wBUlopVAqguZ6O6uspOy-16" target="wBUlopVAqguZ6O6uspOy-13">
          <mxGeometry relative="1" as="geometry" />
        </mxCell>
        <mxCell id="wBUlopVAqguZ6O6uspOy-16" value="Model Reg" style="rounded=0;whiteSpace=wrap;html=1;" vertex="1" parent="1">
          <mxGeometry x="485" y="130" width="90" height="60" as="geometry" />
        </mxCell>
        <mxCell id="wBUlopVAqguZ6O6uspOy-21" value="" style="dashed=0;outlineConnect=0;html=1;align=center;labelPosition=center;verticalLabelPosition=bottom;verticalAlign=top;shape=mxgraph.weblogos.github" vertex="1" parent="1">
          <mxGeometry x="197.5" y="390" width="35" height="35" as="geometry" />
        </mxCell>
        <mxCell id="wBUlopVAqguZ6O6uspOy-24" value="" style="shape=image;verticalLabelPosition=bottom;labelBackgroundColor=default;verticalAlign=top;aspect=fixed;imageAspect=0;image=data:image/webp,UklGRgwNAABXRUJQVlA4WAoAAAAwAAAAcwIAcwIASUNDUFQCAAAAAAJUbGNtcwQwAABtbnRyUkdCIFhZWiAH5QADAAIAEQARAAhhY3NwQVBQTAAAAAAAAAAAAAAAAAAAAAAAAAAAAAAAAAAA9tYAAQAAAADTLWxjbXMAAAAAAAAAAAAAAAAAAAAAAAAAAAAAAAAAAAAAAAAAAAAAAAAAAAAAAAAAAAAAAAtkZXNjAAABCAAAAD5jcHJ0AAABSAAAAEx3dHB0AAABlAAAABRjaGFkAAABqAAAACxyWFlaAAAB1AAAABRiWFlaAAAB6AAAABRnWFlaAAAB/AAAABRyVFJDAAACEAAAACBnVFJDAAACEAAAACBiVFJDAAACEAAAACBjaHJtAAACMAAAACRtbHVjAAAAAAAAAAEAAAAMZW5VUwAAACIAAAAcAHMAUgBHAEIAIABJAEUAQwA2ADEAOQA2ADYALQAyAC4AMQAAbWx1YwAAAAAAAAABAAAADGVuVVMAAAAwAAAAHABOAG8AIABjAG8AcAB5AHIAaQBnAGgAdAAsACAAdQBzAGUAIABmAHIAZQBlAGwAeVhZWiAAAAAAAAD21gABAAAAANMtc2YzMgAAAAAAAQxCAAAF3v//8yUAAAeTAAD9kP//+6H///2iAAAD3AAAwG5YWVogAAAAAAAAb6AAADj1AAADkFhZWiAAAAAAAAAknwAAD4QAALbDWFlaIAAAAAAAAGKXAAC3hwAAGNlwYXJhAAAAAAADAAAAAmZmAADypwAADVkAABPQAAAKW2Nocm0AAAAAAAMAAAAAo9cAAFR7AABMzQAAmZoAACZmAAAPXFZQOEyRCgAAL3PCnBBvoKBtG8b8yp/MLg1FjSQps+Bf4e6BAMbnGUjbJv7u3822KwbABJrahEYzkkz6HQCFUQDk34MDs3O5Zfo33lrfsaDIu3NdFlDBYdA2kqMk/Flf/QIgIiaAX9QGxwSYuapmTli004zvSkfaNkeSkivoitWbaPC6OgJ7Z4sDjCikt8pHVhNjrW4wVUPOWniMuVr0hbhPi6rM/L/vnx+ZEf2Hw0iSIqmqR6dYsHaf+U260ba3kSRY3bVdzbzW3QwmgBVtrmh3RQhnjnfaRwRXqANOWPqimRb4/+97cXZE/+UgkiRJUjTBkmAr/ZuXw+lwa9uWm6iF+63lKWImdQnKaMMlqCRllAr/DeemEf1n2LZtJIs3RO8bwBmuxf8U/1P8T/E/xf8U/1P8T/E/xf8U/1P8z39n8/FB+GxkszwIyx6etlj+DGv9tLJXbh6sJ/xgr2yHjRxabP9mT5vLoSffWyu/9+XQYO6judxLc7mX5nI/zeYQvjOWB2gsD9FUHqSpPEhTeZiGcgQN5QgayjE0k6NoJkexMptDOGkkR9JIjqWNHEsTOZomcjwt5HgayAk0kFNoH6fQPE6ieZxG6ziNxnEijeNU2sapNI3Nxj9CMBt/CcFq/CKEDDSMc9AuzkGzOAvN4jy0ivPQKM5Eo1hF7kN5OBk/qditIL/+ZfwY+Nh88Yb3fod5HoagIL8eT8/LeT7wfm2Yna8V+RrjMF2PvL4Wv0vsjDlHvUJvtv1GHxNbPT6Om/w3yzu+Z3itHR/GnWeWt33f0Fo5PvwSz5t98V+TOitJlyb+Lqd14+mXkcj7fmAonZfka8zJ0BBaNZ5+Hqlc8oPD59ykW7k8HMz4JJmz5xT3+mH+t8vwnOZy9rykyrzjXObvGDFcVow/jXm2ad72MUNlvfjHCGRX5jBmRkQWINcKyDmM6VbFYwkyrYjMwo13E9JYK/45nhKSARg5JNaKv4+nxGQAxg6HleLXI5hDIJci43crCsuQZIXlfBsd28cM1omP4f4X+uvGxw+BpciwojLynCbgW4oLbFDjMgT/31foFiO/YRnKy8T8HXDLkd6ETMNGtwkPBPMMvnrOyBicg2xBrtebm4wYbOm3ECTJ3aCmcgzmPLfxXVxLktycDMJJp1EtyhU79iUKp4FaG6b7X/iXAM3DtCypO/usjMIAiBYmdIOqkvMDg+m2RoCWJrJZGc73/PxOhWdpElfPAhmGIdAsTmAFMg5jgFmeuA2qQsZhECzLk1aJTMCQdqEMQGpTS8EEjOkxkBG6Q62eRTIBowBZDT5cKpIZGAbGEARvUKNnBRkY5msUYxBTuQwdGIR1F8QYpFQnUzAQhJXg6VKDDB0YREKwErxUKHMwFIBRiNig6mTuGZEbnxQ3DIFNnRUkYajT0laBV/XJv79kaeMAKO+oDR4mJ2E0SQPlOW2DmjsryMJoI0kj0VuxNMLIT/4WNBKtVUslDLpNKGYoOlfPcpmGCaSMRV/1Mg0zCBmLtg2qXlph/PhbxGB0lSaXfWR4LGI0euqQAphCwmi07OzNMnyDliO/4UhYBGrOCryQcvz9awh4XKBD8omYNH8n96/PgUdftUtBMSx6m3A7BGaeLnVJCUyT1YjU1iYlME9OI1K7QbVJN8wef+czJPEd+6KBiU5nMyaF9UkNTJXLtLwqQCYPDFLlMShtZ9vKswIRzJXFqBRtUK3SDxXH3zmMSk0pUnWDZlkTphuWknqlCKq0ByHg0rd6Vh0mq2C+VOMyvwh0SxnMl2ZgkjsOsrykz++mGZnJ+qUM5vc4yYR8vNQvdbCCBEMzVYDUwRLijc3EBpUghbBCX0caPG8FdS4FhbBEd+MMnr/CZUghLCLObDxdypKKA4MqooxOTU1nBUpYRoThGdugQqXuxY7Ovf6w8RkpUyZfyVLG6UHjM1CMlMJCBszFq2KkFlbSbwbOFoEcqYWVjHrNwETN/2rEgfrjbyJ/+fLV/ZKkDwLWhET+8uUgWD17DpPFsJgNcxDYUYoaVrNmHn59KUuCoOf4e2UWXhcrRTdoxXq8MguvSpNyWK3LIdBw4LKT51Fu/grP9DFwUg/r9SNN2sBJ/TO4VaA0wILNdeZmyEUlqcyDIQ9xqzjpgEXxELUUdEBwjSYtkFulSQsE12HSAsE1lvTAujFwcbnso+6uMBAlTbAwRbmZcha4ipImWJqa3JtyiFwDSRcsjoGQw2QbLE5FHm05i1zjSBus3g3s4UgbLN8cmxTpg+gaTRoODNBRpBF2oBs3Y17UgmrcG7OJHUMaodh1xFmBE7JrCImBvDenEdIJu+wKLAnSCtk1gPRCeADphY1oxLM5Z7FrLGk4U4bnP0w2w1bUof0/fhO85pZgiPgGM03KX+wIr5ulHTZrjkeztEN6XumH9LpV+iG9ZpUASM8qAbAjHXgAZBO9ZpQEiM+4FCTAlrsy5+cZkVU9QdEnERAfQRpv0PB1l2RAfM0kGc/g55IQ2BczN0guwldNEgL5ec4KkBD55nS3SApsbU7Kl5is4me5O8NAft0hMZBfdUgMNGBVuezDgK6XINgfG4+gnGWA/m8+EASIjHtQDhlQ1ZIIyY/O6rMCFDSgiyUKGlDFEgUdEEsUdKBLJQs6UC0ScmDggFSCYe+b0wzcYHkRCALuYNlA5uf4LAUGZUHXSRpkAc4zLmdZoJM4aEGXSRy0oKokD3qgkjzoQRdJIMQJlhsw3zy7gsoDMJuAgLIA85QHVbIUJEITLBLxYkcPmkIioQdVIZHQBIFkQhNaXjIhlR+zMy/ZkP78l5dQaEJLSygEA8R9oUIXspIK0aDwJTar0IDwiM1FLsgk7AbNhZaTWAhXTmYk9xk2pCQX0u1KRmYkGLpQMxIMbchIMLShxSUZEhLlD+issiEvkQcGiAS5ofOQDTUsF4Lk9/WXk8s+IM2zMCjhkJIMz/Cc5UNQwiEnCe7gOQRKgKXQoREhiYc+tIjEQx9qRP5fQaI/cEckHrJK5VzyoRE1LsEHBkb0qVwA0tKN2wJ5ES7ZuFsgm5zoE7kAFDDN+F8pK0BiiXEil4P0N6f7fbkEJO6jYDwskU3MwuNduQaEFh7vyTUgteh4Ty4CqeXGbZF8C1twvCMXgdwy436RPAUuNN7KVSC4+PhymdwFLjwel8k3+V5Exhu5DEQXGa/lMtCLdiXXgV7UK7kQ9KJf5ELQi3aRC0Ev6kUuBM34t5SVIL8bvP8EoZV/fj70jzeiOtCLiutf+CQLes21w4pTZPmSBz0mowk95jrZiNN02WTDp84Z7cGHk85Z7WHHMfZuYqcpsw8L+8px9nBgpyLN8sO/rZGj7e+gv0474j4/VM/uyHH3+UTtjJ9Ujr5d++FE3WObtt2vnBK92X2u5aHjy+3ivtOnX6wOVe/YyDtck7u+eV2d1M3asTp2+lyNZ7rjpn3azZy+nT6nvu/rvXaR6Vzdnm88b9umZno2utc+3b9fuaOk027Rts0E996v16/UzB1lvTntFp+vrl0NcWPXzV7bLva7mTtqe3PWdYtFu2zTTOo6zxWqm9U1ap8u9rvk+/oIvoaz2bSL6WzZyhmuxf8U/1P8T/E/xf8U/1P8T/E/xf8U/1P8z/+TpAAA;" vertex="1" parent="1">
          <mxGeometry x="715" y="106" width="48" height="48" as="geometry" />
        </mxCell>
        <mxCell id="wBUlopVAqguZ6O6uspOy-25" value="" style="shape=image;verticalLabelPosition=bottom;labelBackgroundColor=default;verticalAlign=top;aspect=fixed;imageAspect=0;image=data:image/png,iVBORw0KGgoAAAANSUhEUgAAAZAAAAGQCAYAAACAvzbMAAA9HUlEQVR4nOzdCXxU5b0+8Of3nkkCiEgmAZGyuHaRWjdIAqKyVWqv2ttW1GqrVatUWdReq+3/2jbdbmtbt5BgqbW2Wjew2lqvXDEJ2IICYrVaaysqZBHZEhABIZk5v/8nYREhgcxkZn5z5jzfz6eVJDPnPB/IzDPve855TwREOeaUhesOLuiR119bY8Wec8UKvxgixaLaTyH9APSBoi9EPAH6KDQPQG8ABQL0UmgvQAp2bi4mwHsd7UeBTQA2o+3nis0i2ADBZl+l7c+bRbFB4a9V59ZKHG/HXWztmBH91paL+Jn9GyFKD7EOQJSISbPVe/fw5oG+L0PV4XBVfyhUhjrBUAWGYsf/eljn3I84gLWArgZkFYB3FPKGU31DnHuzdUvrGwvG9t9sHZKoK1gglJXOXK4F25o3ftypfgKC4wD9BIBPAjgcQJ51vjRbDeANKN4Qp2/Cl9f8iPdS7cmHvAURtQ5HtAsLhMx9euG6gX6elKjKyQCOFWkviiMBcIr1w95TxcsQfdmpe8n3/JcOkpZ//Hn4wK3WwSicWCCUUacsXHdwTw8n+84rhWqJCEoADLLOFWBxVSwXYLEKFjlfF1WXFf2LIxXKBBYIpdWYpWsHRDQyTqFjAYwE8AkAzjpXjmsC9FmFW+QUi2Lvv7tswdgjtlmHotzDAqGUGv3XjYUF+bHTFW6cQMcBGGadiXQ7IEtFdJ4CT506ougFnglGqcACoW6ZNFu9jYdvHK0aP1Mh4wGcCMCzzkX7tV6ApxX6VMTTeU8N7/eOdSAKJhYIJeyUhesO7hFxE0XkHIV+FkCRdSZKmgJ4GdCnfOceP3144XMcnVBXsUCoS85YtLq/H4l8RoFJAD69x4V2lFvWC2SuL5jjbymcu2CsxKwDUfZigVCnxixdO8DzvfMBXAjBCP6+hM4agT4Ghz/ENhctYJnQ3viGQB9y5uKmPi2inxfIhQqM5/EM2mk9BI8q8LvakqJnrcNQdmCBUPuB8A1HNI2F7y5W6BcAHGSdibLa6wI8GPPdbxeMLFxpHYbssEBCbOzz6z7mfHclgEt4IJySEAfwNAS/jW/Z9CdeaxI+LJCQmfSq5jdvaf48VCYDOoa/A5QKAmxQ1Qc9z905b0T0H9Z5KDP45hESYxY3DYoIvqbAVQD6W+eh3KWKRRDc4W+NPsYD77mNBZLLVGXC0uYzFLhux6m3XEKEMmoFBFXxPHf3ghMLN1qHodRjgeSgk5dp3iHx5v8U4JtA++m3RJa2CWQO4vh59ajoK9ZhKHVYIDmk/QrxPHcFgGsBDLbOQ7QXBfAkgB/XlBY9Zx2Guo8FkgN2XCWed7UC0wBErfMQHUj7cRInN9eWRP9snYWSxwIJsInL1h3WGve+LfCv5NIiFETtReLJj2tHROdaZ6HEsUACaMyyTcWReMv1CpkOoKd1HqIUeFmgtxTWFd0/5zyJW4ehrmGBBMjEZ9+Nxr3Y9J1nVfWxzkOUBq8q8P3a0qI51kHowFggAXDKwnUHF+R5Vwv0WwD6WuchSjcFalT9G+eX9XvBOgt1jgWSxdpPx401T3GC7ypQaJ2HKMNUoQ9GELlpXmnfFdZhaF8skCw14fn1E9SX23lLWCK0QnAP/Nh3a8oOXWMdhj7AAskyE55tPk4jegu0/cpxIvrAJkB+HO1dePucYdJiHYZYIFlj4rPvRmMu9j0IrgYQsc5DlMWWCzCturToKesgYccCMTZmvkYivZqnKfA9AIdY5yEKDMXD6ut/1Y4qfts6SlixQAx9eumGE3z1f8X1qoiStlWAnxf2jv4Pp7UyjwVi4Oxlq3q9H8//rkKu5y1jiVLidVVMqy0rmmcdJExYIBk2bmnz2aJaCWCIdRaiHKNQ/C5e4K7j8vGZwQLJkDFL1w6IaORnCv2KdRaiHLdaVL9eXVb8J+sguY4FkgHjFjddKoLbeJCcKIMUv+VoJL1YIGl05t/e69fS2jILwOetsxCF1GpAr6opLf6jdZBcxAJJk3GLm84Qh3ugGGidhSjsBJijyLuqprRPk3WWXMIL1lLsjL+vPii+Le8WAFdCWdBE2UCBcwWtzwHtU8mUInyDS6Fxz68vEV/uA/BR6yxEtNt6X+WS+WXRJ62D5BpnHSAXlKu68Yubviu+LGJ5EGUPhT7jWv3jWR7pwRFIN41ZtqnYi7e2jTo+Y52FiHZTKGZsjESvf2G4tFqHyVUskG4Yv3T9CKjMBnC4dRYi2m2tABdzscX04xRWkiYsbr4SKgtZHkTZROZHPP8Elkdm8CysBJ25uKlPq+DXCp1knYWIdosL8KPCusIfzjlP4tZhwoJTWAmY8PyGE9WPzwHkKOssRLRbo4q7qLak8C/WQcKGU1hdNH5x07nq+wtZHkRZRFEdl/gIlocNFsiBqMq4Jc03QvAwgF7WcYioXUyA759aGp24oKT/auswYcUprP04c7kWtDZvuIsr6BJllQbfyZfmj4gusg4SdiyQTuy8vuNRAKdaZyGiHUTkcS/mXfrUqEOarbMQC6RDE55tPk49fZyn6BJljZhCbqotKfwZRNQ6DO3A03j3Mm5p89mq+gCA3tZZiKiNvumgFzxd2m+ZdRL6MB5E38OEJesvFtVHWR5EWeOx7S2RESyP7MQRyE7jFzddozuWeua0HpG9bVB8q6as6A7rINQ5FoiqjF/a9FMAN1hHIaJ2rztx5z9dWviSdRDaP886gKVJs9U7bEvzLECmWWchonaPiCdnV4+I1lkHoQML7XTNmcu1oKW5+fcAzrXOQkScsgqiUBbImPlre3sHeY9C8WnrLERhp4p/CeT8mrLoy9ZZKDGhm8KasKz5EPGkGsBp1lmIwk4g93k9Wz9XPbxfo3UWSlyoRiA7l2Kfp0CpdRaikNsMkatqSqK/tw5CyQvNWVhn/H31QS3b8GewPIis/dNzcv68EdF/WAeh7gnFhYRt5RHflvckp62IbAnkvl7e9hEsj9yQ8yOQ9vLYnv8EoCwPIjvvKWRyTWn0QesglDo5fQzk7GWrem31e/wvVMdYZyEKLZG/xWOx8xeM6v+GdRRKrZwdgbSVx5Z4/pMCPd06C1FIKRQz8qOFN8w9RrZbh6HUy8kCmTRbveZ48+8FYHkQ2dgkgiuqS4tmWweh9Mm960BU5bAtzb8CcKF1FKKQWibOm1BdEl1oHYTSK+fOwpqwtOknAC63zkEUQgpFRbR39JTqEX3fsg5D6ZdTB9HHL22+GqpV1jmIQqhJIJdUl0b/1zoIZU7OFMj4xc0XQPT+XBxVEWUzAZbEfHfBgpGFK62zUGblRIGMW7J+nABPAlJgnYUoRNrPstoYiV7/wnBptQ5DmRf4Ahn33LqTxLlneBtaooxaA8VXasqKnrYOQnYCPd0zZunaAeLcH1keRBkkssC1+iexPCiwBTJm/ooennqPARhsnYUoJHyB3hxdWTjh6dH9VlmHIXuBvZDQ69WnEkCZdQ6ikFir7VNWxfOsg1D2CGSBjF/SfAOgvNaDKDNq4xK/aEFp/9XWQSi7BO4g+oQlzf+h0MeDPP1GVnQ7IGsAvN32XwEaVXUDBBtVsQGiG53De6Jea8yPbW57hue8ElWdaZ3cSExEvjN6ROHPykV86zCUfQI1Ahm/uOlYhT7A8qD9aFXg36J4VYHlcPqmqHvTtcbfTGbefvyS5sPSEzPrNfhOvjR/RHRRtXWSMJmtHpoaPoGrhgTifimBKZDRf91YCIk9Dkgf6yyUNdpGCX8TwVIFlvnAPza56Ou8JqG79M9A/qXzR/Rpsk4SKhWNg2Rtw/0AjteZdSfh6qFZvxxMMApEVXo8v+G3qnKUdRQy9bZCnxG4v3gOiw5ZUfjanPMkbh0qh7QA+HZNSdFtEFHrMKEyo/4cEf83AIravhRfHtbyV09B+bAW62j7E4gCGf988zdUcY51Dsq4Taqodg7/F4vF5/OGRGm1Qp1eUDuieKl1kFCpWF7gXI+fKXTaXsekh7vig2/2gesM0x1Q1hfI+CVNI6H4iXUOypjXBfqYiDe32fV9ltNR6aeKR/0Cd/mCEws3WmcJlcrGj4roQ6p6Ykc/VuAaVDb8BVMHP5b5cF2T1QUyfsmmIqD1IQB51lkorV4S0T/EIY/NLyl61TpMeOh2Ba6vLSuutE4SOlV1F4v6VdD9rqIhAv2Nzlj5EqYdviKD6bosewtEVbB0w90AhlhHobRohOJR59w9T5cUvmQdJoRW+j4umD+yeIl1kFCpWtvb6faZqvqVLj6jr4h7SMtfPTUbj4dkbYGMX7rhm4B+zjoHpVSLQh+BeLNqR/T9Kw/UGhE8lO9j8tyRxZuso4RKZd0w0W0PKzAswWeWuOLeP/KBG9KULGlZeSHh2OebT3G+LsjmgqOENIroLPXjd9WUHbrGOkwixi9pPmvHaa054X1Ruba6LPor6yCh0z5lJb8E0DPJLagqzsS0IU+lOFm3ZN0b9Bl/X31QfJv/O0CyLhslRiAvAH7FBq/oQR4MN/dvH+78+WWFf7cOEiqz3jzExfLvUtVJ3dySiODXetuK43DdEVlzskPWvUnHt+XdDoDXewTXVoX+TkWq5pdEeUA8K8i9Xo+Wq2uOH7DFOkmoVDaUSqs+qNAjUrTFQS7f+4UPfC1F2+u2rCqQcYubzgDARRKDaTMUv4lE/J8+NbzfO9ZhqN37UHy7pix6h3WQUFEVVNZPF+jPU30GqSouR2XDo5g6+MlUbjdZWXMMZOKz70ZjkdgrUAy0zkIJ2QjBrfE8NyMXryMI7DEQwSsS1/OrRxa/Zh0lVG5/61DxIvdCcEba9qF4R1vlk/jG4Oa07aOLsmYEEnOxmSyPQNkKxa/z8/N/NPekg9dZh6EPCOQ+V9By1TxOWWVWZd2nBXIvgAFp3Y/gMFfg3+EDXT0VOG2yokDGLWmaBOB86xzUJTGF3pXn6Q85VZV13lPI5JrS6IPWQUKlXCMoqr9JIN/J1ErhqvJlVNX9CVOGPpKJ/XXGvEDOWLS6fxzglbABoECNi8t1NaOKXrHOQnvTF5365z9d1n+5dZJQqWo4WrThIUBOzvSuRVGls1YtwOSB6zO9713MCyQeyZ8FaH/rHLRf//ZVvjG/LJoVB+5oLyJV+YXR/5p7jGy3jhIqVXXniupdAPraBJD+Lhb7qeVZWaYFMn7J+v8E9D8tM9B+bRPg5rxo9Cd8c8pKmyC4sqYk+rB1kFC5taGny8dPVXW6dRRVXIaZDffh6sHPWOzf7M5+Zy9b1QuQ26z2Twci8z1PT6wuLSpneWQfgbygnndSTUkRyyOTKuqOlTxdqrAvj51E4lqJWctMFpw1K5CtsYIfADjcav/UqWaIfKWmNDpu3vDif1mHoX2oArcV9i4cVTu875vWYUKlqu5icfI8BJ+0jvIhbXli/U0KzeQ6kAnPNh+nnr7AZdqzzv9qXCfXjip+2zpItsiy60DeheJrNWVFpmfehE77ciR5s1Sz+kzRrerFh+GqI1ZmcqcZH4GUqzr19Fcsj6yyUSAX1ZQWncXyyE6qWCSefIrlkWEVDSXSmvdilpdHm14Sd7/I9E4zXiALn98wGUBZpvdLnVoszju5ujT6gHUQ6pBCUfFuJDq2eni03jpMaKgKZtRdI04XAkjVWlZpJl9EZd1ZGd1jJnc2fvGaQ0UirylQmMn9UodiAvy4sC76wznnSdw6TLYynsJa76tcwtOnM2zWysOk1fs9oOOsoyThLfW3H4vpx2TkxJeMnsYrLvITVZaHOcEq8eX86rLoQuso1DGFPuO16oU1o/utss4SKhV1E6RV7gM0vcuRpM+R8AqmArglEzvL2BTW2CUbjlfFJZnaH3XqLxHnD2d5ZK0dU1Ze0aefZnlkTrlGMKOuXJw8lfa1rNJMFDehsrEoE/vK2AhE4N9iedowQVX15qL6ops4ZZW1Viv0otqy4lrrIKFS+dZQQeMDgIyyjpIifR38/+cD/5XuHWXkDX38kuazBBifiX1Rh7ap6iW1ZcXfZnlkK5kf8fyTaktZHhk1o+GLgsiLgOZKebRTYCqqGo5O937SXiCTZqsH6E/TvR/qhGCVOj29tqz4Puso1KG4AN+P1hV+mqsbZ9CtDT1dZcMdIvoIcvOknnwH/VG6d5L2KawNh2+4Eoph6d4P7UsgL0hL/BzOpWetRhV3UU1J4V+sg4RK1cpPiOrDChxnHSWdVHEeqlZWYMrhz6ZrH2kdgZyycN3Bqvq9dO6DOqGozlMdx/LIUorquMRH1LI8Mquq7mJRtww5Xh47iaj8ov2aljRJ6wikICL/D8Ch6dwHdeg38fejk+eOlZh1ENpHq0D+u7q08BdtL2/rMKFx24q+kud+DZUvWkfJLBmJmfVnAUjLtUxpK5Dxi9ccCpFsWbEyNFTxo9qyou9Y56AO1QH4UnVp9DnrIKFSVT9CFA+1XyMRQqJSrqpPpOMDS/qmsCRyA4Beads+7UvwXZZHdhKRxyPxyEk1pUUsj0zZtRyJYmFYy2Onk3Bn3WfTseG0jEDaRx/A19OxbeqQQnFdTWnRHdZBaB8xhdxUM6LwZ5yyyqA73+gvMxt+C5EzraNkA/Hd91X1yVT/DqZnBMLRRyb5qri8pozlkX30TQd/ZG1p9GaWRwZV1o2XWP5LULA8PnAyZjZOTPVGU14gY5auHcDRR8aoQqbUlhXdYx2E9vHY9pbIiKdL+y2zDhIau5YjgcyD4DDrONlG/NSfEZvyAnHqcfSRGQqRqbWl0V9aB6EP2QbFtTWlRV9YeGrfDdZhQuOOVUOkuGGBiHyPSyZ1QlCGyrpPp3KTKf2Lbht9CEcfGSHQa2pKojOtc9CH/NuJG8npxAyrbPi8eLGXAJxiHSXbCVx5KreX0gLZOfromcpt0r4E+H51afEM6xy0J70/vjU+/OmSwpesk4RG+3Ik9b8U6KM5uhxJGugozGgYk6qtpewsrNF/3VgoiF+Rqu1Rp2ZVlxal9FMEdcs2KL5VU1bMUUcmzVjxcZH25Ug+ZR0laET0OgUWpGJbKRuB5Of7VwLonartUYceidZFp1iHoN3+6QuGc8oqw6rqLhbxloHlkayzMfPtj6ViQykpkJOXaZ5Ap6ZiW9Sp53t52y/hcuzZQSD3eT1aS+aXFL1qnSU0Kpb3cTPqHxCV3wE4yDpOgInzYyn5IJqSAjkk1nQBgEGp2BZ1aCU0dvafhw/cah2EsBkiX6kujV487/gBW6zDhMaM+uHiCv6mgi9ZR8kFCrkMtzZEu7udlBSIiExLxXaoQ5s8J2fXlB26xjoI4Z+ek5E1JdHfWwcJjV3LkQgWATjKOk4OOQh5ell3N9LtApnw3LoxAEZ0dzvUobgqJs0bEf2HdZCwE+gv41s3ncx/iwyb2fhdEbkdQL51lFwjIlPbL77shu6fheV510G5SkM6iMhNNaXRedY5wkxFNjno+dUlxbOts4SS+BVQuTjkiyGmiQ5FUf3nAcxJdgvdutHI+CXrPgq413jlZxoI/lAzIjqJayhR6M2oHy6CvwLoYR0lBy3SqUNGJ/vkbr3xi7irWB5p8dq2Fv9SlgcRgGlDlinvLZQup6CyLulbjif95j/pVc33VS9K9vnUqW1O3IWLRvd7zzoIUdaYMvgugd5vHSMXOUjSB9OTLpANmzecK5B+yT6fOiYq13A5DKJ9+dLz6xAst86RaxS4BBXLC5J5btIFogIuW5J6j1SXRX9lHYIoK03pv1mBiwC0WkfJMUWQHmcl88SkCuTTi9ceA9XTk3kudapBPPmadQiirDZlyPOq+L51jFwjTi9P5nlJFYgv7mvdPYOLPkQFuKJ6ePRd6yBEWa9p8E+A9gsLKVUUE3HHqiGJPi3hAhkzXyOAfCXR51HnFFJZXVr0lHUOokAoF1813vYh9n3rKDnEwYtdnPiTEhTp2fw5gLeLTKHlB3nbvmUdgihQph3xL4VyKiuFBLgM5ZpQJyRcICq4NNHnUKfUibuCiyQSJaH/kF8AeN46Rg45Av3qRyXyhIQKZPRfNxYCSOk9dcNMFb9+uqTwGescRIF0nsTVtZ94ErOOkiuc4ryEHp/Ig3vk+ZO4qFnKrG5p9W60DkEUaFcPfllEqqxj5AqFTMJs9br6+IQKxBdNqJ2ocyK4ZuGpfTdY5yAKOr9Hj+8AaLTOkSMGYH1jl9fG6nKBjFm6doAAKbsZe8jVVpcUcXVXolS4vN97qrjeOkaucPGuDxS6XCAe3Hnt/6HuiktcrrUOQZRTpg15GDtW7KVuUsGkrt4npOtTWCrndycU7aSoqh4VfcU6BlGu0bh/DQDfOkcO6IeiutO68sAuFciEZc1DAIzsdixq3t7qlVuHIMpJ0w9/URS83XAKOHFdmsbqUoGor5O4dEkKCP6HB86J0sd33k0AtlnnCDqFfr4rFxV2bQpLcU4qQoVcXX5htNI6BFFOm/KRBlHcaR0j+KQ/oo3DD/SoAxbIzosHE7o6kfYl0O/OPUa2W+cgynV+fuR/AGyyzhF44n/2QA85YIEU5PkTAXTpiDx16tXRJUWcmyXKhMkD1wv0dusYQSciZx7oMQeewhI/qRuN0B5UflQuwrNDiDLEz4vdCmCjdY6AG4473+i/vwfst0AmtV/SLhNTHitclkfrC+dYhyAKlclHvSvgsZBucojn7ff9f78FsmHIhpEAilMeK0xEfjDnPIlbxyAKGx/uFgCbrXMEmdP9T2Ptt0DU4YAHUWh/9M3oysIHrVMQhdLUQU0C/No6RpCp4Iz9La54gGMgyuMf3SHuVo4+iOz48chtXO69W4qwrq60sx92WiBjlq4dAMUn0xYr9zV7BS2/sw5BFGrXDKwX4FHrGIGmblxnP+q0QDx4p/Pq824QVM47fsAW6xhEYefD8ZTebhDFqZ39rNMCUdXT05Yo5+l2+LGZ1imIqP1YyHNQLLaOEViCUZ2tzttpgQiE9/5I3iM1ZYeusQ5BRDuoU57Sm7zeKGo4oaMfdFggZyxa3R/Ax9MeK2e5WdYJiGgP290cAM3WMQJL0OHy7h0WSCySx+MfyXutpqRwoXUIItrDNwa/L9D7rWMElUjHx0E6LBAR4fGPJCl0JkTUOgcRfZiv7i7rDIGlOK2j5d07PgaiyuMfyWkR5PPCQaJsNG3wKwCWWccIqCiK6z+x9zf3KZDxSzYVATg2Y7FyiCqeqCnt02Sdg4g6ppzGSp5g9N7f2qdA1MVKePwjOQ56r3UGItoPr/UBXpmeHOfj5H2+t8+jfP+kTAXKMes3RIqetA5BRPtx1dFroai1jhFEKnLi3t/bp0AEbkTGEuUQgT7ywnBptc5BRPunDjxOmZzjMGtZ3p7f6OAguh7wPrjUAYc/WEcgoi5Q92dOYyWlALEBw/b8xocKpH0BReAjGY8VfE2xzUULrEMQURdMHdQEyF+sYwSS739oGst9+IsIp6+S88cFY4WfaIgCQgWPWWcIIifaeYFAlQfQk6Aif7LOQESJcHzNJkEhH+qIDxWIAByBJG7bQW5bjXUIIkrAlI80QPEP6xgBdMKedyjc+yD6pzKfJ/AW/Hn4wK3WIYgoMeLwf9YZAuggrGs8YtcXuwtkzPy1vQEMMosVUALltR9EAeSrskCSofjorj/uLhDpKR/jFeiJE/X5S0gUROs3/xUA7xqaKNGP7frj7gJxzttnoSw6oMany/ovtw5BREkoH9YCwXPWMYLGKY7Z/eddfxDlDaQSJZD51hmIKHkK8HqQBClk3xGIirJAEqXKiweJgkx4QWHidN9jIOAIJGF+xHvGOgMRdUPP2BIA261jBMxHUNV+0tWOAhkzXyOAHm2dKmDW1g7v+6Z1CCLqhkuP2AbgJesYASNAS3tftBdIXs91RwBSYJ0qWHSJdQIi6j6BLrXOEDi+334cpL1A4vCOsM4TQIutAxBR9/nA89YZAkdkCHYViAgGW+cJGifgCIQoF6jPAkmQkx2rtrcXiPIK9IS5WN6L1hmIKAWaDn+dFxQmRnWPAhFgiHWggGl8atQhzdYhiCgFysUH8E/rGMHif1Ag4BRWYhSvWEcgotQRcGXexLiB2D2F5bNAEiLKAiHKIb7gVesMwaIDUa5u10F03sY2AQL+shHlFJ8jkATloe+Kfm70XzcWAjjYOk2gqLxuHYGIUsgJLwpOlHMDXV5BfKB1jqCJRfLesM5ARCkUWVPX9tK2jhEoEQx0Ebhi6xwBs3HB8D7rrUMQUQpNHt4KoN46RqDEvULna7zQOkfA8P4fRLlIwZmFRDj0daIStc4RMHXWAYgo9UTQaJ0hUFT7Oh9ggSRC8LZ1BCJKi1XWAYLECQ5xIsIprASICguEKAf5gnesMwRK2whE4HMEkhgWCFEu8jkCSYi4Q5yK9LXOESQi/hrrDESUBs5fax0hSLRtBAKgyDpIsHhN1gmIKC02WAcImL4OyqvQE6FOuQovUU5SFkhC5OC2EUgP6xhB4vJaOAIhykXrtvLDYUI00lYg+dYxAqR13vEDeOMZolxUPqwFwPvWMYJD8jgCScxW6wBElFbbrAMEB0cgieKnE6JcpiyQrtM8p9AC6xgBwhEIUS4TFkjXScQJhCOQruMvF1Fu4yxDl2meA5THQLqu1ToAEaWVWgcIDok4cARCRLSLWAcIkPaD6NR1/HRClNv4Gk9AW4HErUMEh/KXiyi3cQTSddvbCqTFOkVwCEdsRLktYh0gQFo4AkkMTzggym29rAMEhu4YgfDMoq5jgRDlNhZIV4m0sEAS09M6ABGlFV/jXaYcgSSIv1xEuapcuTZgInTHMZCYdY4A6T1mvvIgG1EuKn67kGdhJUB4DCRRgoPf4y2AiXJRXKPWEYJFWxxE3rOOESR5sW2F1hmIKA1EeHvvRIhsdFDdaJ0jSOKeY4EQ5SJRvrYTID42OlWwQBKh7lDrCESUBqKHWUcIFNH1zjm8a50jSEQx0DoDEaWB4CPWEYLEVzQ7nyOQxIiyQIhykFMWSII2OIAjkIRwBEKUk1RlkHWGQBE0O+EIJFGDrQMQURqI8rWdmA1OnXIEkpgjrQMQUYqpCl/bifKanMa12TpGwBw+abZ61iGIKIV+VTcAQG/rGIHipNlFHFZZ5wiYvHWDN3KoS5RLWt0x1hECR/PedmhlgSQqEokfbZ2BiFKKr+nEbMCU/ptd31XFa7igYmJUcax1BiJKHQccZ50hYOrb/s/NOU/iANZYpwkS9eWT1hmIKHUUwgJJiDRgR/G2/+29bR0nSETAAiHKKT4LJAEC3aNAhAWSoGE7T/sjoqCrWjEAkP7WMYLEBxqxq0AEwgJJTJ9PL1nHg25EuUDdcOsIwcMRSLeoREZYZyCi7nMqJdYZAkfdh46B1FvnCRxRFghRDlABCyRh8Tp8MIUVf906TtD4PlggREG341gmCyQx76Np6AcFElHHAkmQCE6a9KrmW+cgom6YWfdxALwTYUL03ygXH7sKZG5Z0SYAq61jBUzP9Vs3cBRCFGTqxlhHCBpReW3Xn90e3+coJEEu7p9mnYGIkucAFkiCfJF/7fozC6Q7RE63jkBESVIVBfgaTpT6+45AVPFvs0DBdQqPgxAFVFX9sQAOtY4RPG7fEYiDLjfLE1y9N27ZONI6BBElQeVM6wgBFEfv2O6u+KBAIhyBJCPuxz9jnYGIEicifO0mbiUuPWLbri92F8ghbxW1tcpWs1gBJYKJ1hmIKEFVa3sDOto6RvDIi3t+tbtA2pd1V/zDJFOgyQkTl607zDoFESXA3zYBQIF1jKBR+H/b8+s9z8KCiP4t44mCT1rj3uesQxBR1zng89YZAmrZnl98qECg7sVMp8kFDspfRqKgmLUsTwVnW8cIIAW8/Y1A4hyBJEGBsaP/upHLIRAFQbz4DC5fkpQVmDqoac9vfKhAItHiVwC0ZjxW8OXl58XOsg5BRAfmfPdF6wxBJHtNX2HvApl7jGwH8M+MpsoRInK+dQYiOoDyV/MVOMc6RhD5Ki/s/T239zdEwGms5Ewcv3gNr2olymZFvT/X9v/WMQJJ/AMXiPq6z4OoSyIq3iTrEETUORH5snWGgPLh9h1c7FMgznmLMhYpxzjwl5Moa1W80w8Aly9Jir6Mq4du2Pu7+xTIKSP6vgxgY8Zy5RAFSscubRpmnYOIOuC1tn3Ay7OOEUQi7pmOvr9PgZRL+52mOApJkigut85ARPsSxdesMwSV7+uCjr6/T4Gg/ZO0/DXtiXKUAJeOfLahp3UOItrDjJXjABxrHSOgFPmRhR39oMMCgSgLJHl9e0UO+oJ1CCL6gHPe160zBNjLmDxwfUc/6LBA3nXR57kybzeoTrGOQEQ7zagfqKpcry5JAunw+Ac6K5AXhksrIEvSmiq3jRz73PpS6xBE1H525DQAvHNoknxBYgWC9tbRv6QtUQh4Tq6xzkAUerNW9VLRK6xjBJgi4nXaBZ0WiEJq0hYpBBQ4d8zipkHWOYhCLRa/jFeed8sLnR3/wP4KJL618DleD9IteR5wrXUIotCarZ6o8jXYDQJ9cn8/77RAFoyVmABPpyVVWAi+fubf3utnHYMolNbVXwTgKOsYQeaLPLG/n3daIO1PVsxNeaJwOailpWWadQii0GkffeD/WccINl2LdYP3uzbi/gvExefumM6npAmmj3lxQ1/rGEShsqbxS4B8zDpGkAnkCZS3r0zSqf0WyIKS/qshwtvcds8h3nZ/unUIotBoG30I/ts6RtD5Kvs9/oEDFQh2LO9+wI3QAQiuP2PR6v7WMYhCYV3jZYB+3DpGwLWgV495B3rQAQsEjsdBUuDgeCTveusQRDnv1oaeovod6xg54Blc3u+9Az3ogAVStDK6BECn5wFTl00d9+z6j1iHIMppBf41AAZbxwg6he737KtdDlggc86TuCoeS0mqcOvpIvJD6xBEOWvWqmJRudE6Rg7wofJIVx544CmsHUuUz+l2JIIqLhm/dP0I6xxEuci1xn4EgGc8dpsswLQhq7ryyC4VSLQ+WgtgbbdzkYPK7VAV6yBEOaVi5YkK3jAqFRT+w119bJcKZM55Egc4jZUio8YtbT7XOgRRzlAVce52AJ51lBzQCnh/6OqDu1Qg2HFQZXbSkehDBLhlzPy1va1zEOWEqvovAzjNOkZOEFRj6qCmrj68ywVyWknRAgDvJB2M9jTY6+V93zoEUeBVNhYJ8AvrGLlCoQ8l8vguF0i5iA9VTmOlzjUTnt9wonUIoiBz8G8BhBfppsY2RGJ/SuQJXS4QtN8qXXk2Vup48P07J81WztsSJaOybrwCF1vHyCFzMfmodxN5QkIFMrqs+C8A6hOORR1SoLRpSPN11jmIAqdqbW+BzNpxSJFSQRW/TfQ5CRVI+zSWJL4T6pyI/mjs0qZh1jmIgsT579/Ke32kkOIdNA1OeN3DhAqkTTzu7mm/UpFSRAo8xd2cyiLqoqr6M1SE13ykkAjuRrnEEn1ewgWyYGThSgh4v/QUUqC0eUjTDdY5iLJeZWOR+O2zIJy6Sh3fV/83yTwx4QLZsTtJame0HyI/GL+kaaR1DKKspSoC/24IDrOOkmNqMO3wFck8MakCiR5c+ChX6E25CIDfn7m4qY91EKKsVFk/HcDnrGPkGlW9K9nnJlUgc4ZJCxQPJLtT6tSRLaIzrUMQZZ2ZDZ8SkZ9ax8hB66Etjyf75OSmsACIL79O9rm0P3LRhKVNV1inIMoas948RFQfAdDDOkquEeB3mH7M9mSfn3SBVI+KviLAkmSfT51TRcXYxetOts5BZK5cnbTm3QfFMdZRclDcF/lldzaQdIGg/VxeuaM7z6dO9XDiHh2zbFOxdZDQqqw7D5X1XKDPWlH9dwGcbR0jRz2OKYPf6M4GulUg73qFbcPKxu5sgzo1xMVbp1iHCJ17VvRwVfV3CuRhQHlCg6WqurNFhPc3TxMVvbW72+hWgbwwXFpFpKq7IWgfMQG+f1pJlLfAzaTKxo/KFvecKr5uHSX0KuqOFZX7uvseRZ1ahilDF3Z3I93+x9m23c0CsKW726Hd6lRwenVpUXn70jGUGVV15wr8pYCcYB0l9KpWDBAncwEcYh0lV6mmZgn8bhfIwlP7blDovakIE3aqeHR7i3dibUnRs9ZZQuOeFT1cZcMdojKHb1hZ4NaGnuJ7jwEYYh0ld0kdmgZ3+a6D+xNJxUYEejsgkzncTNo2KL5VW1bEkxIyqbJumGyR2Qo91joKAZitnqxteBBAmXWUXKbQimTWvepISt7wa0r7vS7A/6ViWyH0GlRKa1gemVVVd7FAlgBgeWQDVXHrGmbxSvN00/eQ13p3qraWkhFIO6e3wZfPpmx74TBra3zrdc+NGvy+dZDQqFrb2+n7v1SVi6yj0AdcVeNPFLjcOkeuE8GdmuBNo/YnZVNO1SOKq1WxKFXby3GbFHJhTWnR11keGVTVeILo+8sULI+sMqPhBoXeaB0jBDb78fyU3j8+tccsPPlxSreXm55XzzuptjT6oHWQUKmqu1jUXwTIx6yj0B5m1F0jojdbxwgDgVRh+mHrUrnNlBZI7YjoXCiWpnKbOUShqIj2jo6uHd73TeswoVGxvI+rrH9QVH4HoJd1HNpDVcMVInKbdYyQ2OJ727t94eDeUncMZBeRHwL655RvN8AUug7OXdJesJQ5M+qHi+Ah5a1Ps09V/dWiWskbQ2WGQCr1qqPXpnq7KT/ttqY0+gSA51O93QCr9Vr1BJZHhlXWXSmChbxvdhaqapgqCpZH5qRl9IG0jEDafitUf6wif0zHtgMkJsCPR5dEf8AryjNo1puHuFj+Xao6yToKdaCy7kZR5X09MkhUZqRj9IF0XfhXXVr0uEBeSMe2A6LedzKGy5FkWGXjSGnN/zvLIwupiqusv03Am0Jl2GY/37slXRtPz5XjIurDD+sZWY/E893x80dEeUpzpqgKKhu+KfCfAXSodRzaS/mr+a6y4X4FrrWOEjaiuA2TB6bt9uNpW3qktrT4sZBdF7INimtrSosmLTixcKN1mNCYtapYKhv/LNCfAcizjkN7qVrbW4oPflwFX7KOEkJr/F49f57OHaR17SpV/a/2k5BynCr+5cOVcTmSDKusP01aYy9C9D+so1AH7lg1RHRb24fIidZRwkghN+Hyfu+lcx9pLZD5I4uXAEjJqo/ZSiD3RXq2Dp9fWvh36yyhoSrtF6AB1QAGWcehDlQ2jhQv1vb6/5R1lJB6Gf0H3ZPunaTlLKw9ifNuVD92NiAF6d5Xhm0SyFXVpdEHrIOESsU7/aSq4V6IfMY6CnViRsOFAv/XAHpaRwkrFXwT50k83ftJ+/Lr1SP6vgWVWeneT4Yti8fjJ7M8MmzGynHiWl8GwPLIRrOW5bXfW0X0fpaHqf/DlCHzMrGjjNy/Y3urVw6gORP7SrNdy5GcsmBU/27djJ4SMFs9zKgrF3FtL4oB1nGoA3c2fERa+89X6HTrKCEXVw/fzNTOMlIgC0/tuwGQQC+YptB1vspZNWVF18wZJi3WeUJjRv1AWdNQIyLfA+BZx6EOVNaNl7j/NwCnWEcJO4HcjauG/CNT+8vYHQTjW9+tALAyU/tLJQVq8jw9fn5Z9EnrLKHS9sYkeAGC062jUAfKNdI+MoQ8BUh/6ziEZt/b/p1M7jBjBbJg7BHb1MnVmdpfisQE+H5RXXTiU8P7vWMdJjQ+eGPilFW2unPF4VLcsIAjw+yhKjcgTUuWdCbji5lNWNr8J1U9J9P7TUKDqFxYXRZdaB0kVO5YNUS82APZMB2i0LMxdegT1jmyTmX9ZQK9HZCDraPQbgt1yuDTIJLR6+7SfhrvPhymIY5xAHpnfN9dJn+MxL3Lnxp1SC4c+A+OqrqzRWP3ACiyjkIdqFoxQNT75Y77lnMh3SwSU99NzXR5IJNTWLtUD4/WK+RHmd5vF+1YjqSk8AssjwwqfzXfzai/VVT+xPLIUlX1XxX1XttRHpRNBHILpg8yuZA58yMQAP7Wwlu8Xs0XZtlVqv924i54urTwJesgodI+ZdX6kAIjraNQB6oajhZfq6A4wzoKdajefz/vh1Y7z/gIBO0H1CUmKlOyZZ0sgdwX3xof/nQJyyOjZtT/p3ixlwBheWSbWxt6tp/IoPoPCMsjW6noVHxzwBar/ZuMQNpUl0UXjl/SdC+AS6wyAHgPIldVl0TvN8wQPhXLC5wruEWBKdZRqANVDV8Q1Z8DcqR1FNof/QOmDDW9fbhZgbTJz8v/5vbW7Z8VSD+D3S+Lx+Nf4hXlGXbnisMl7j2kQKl1FNpLRd2x4uRWqHL13Oy3XmNx8w9gJlNYu8w96eB1TnFFhnfL5UisVNV/SeLuZbA8sssdq4a4yvq7xckrXHo9GBRyJa49co11DtMRCNqnsor/NG7J+gcEcmEGdrcekEtryqI8tz+T7lnRw22J3Kyq03n6ZxaZtarYtcavV8SuUaCHdRzqGlHcq9MGP2adA9lQIG38fG+K1+KfltZ7O4gs0Jj/5dpRRW+nbR+0r6qVn5At7mGFHmcdhXaqeKefc63XaWtsmmb19VjUgUY/Fr/GOsQuplNYuyw4sXCjKi5P01lZcQG+H11ZOKF2VDHLI5Oq6i4WdUsBsDyywZ1v9HeVDT8V17pSgW9n98W81AFVkStw3RFZc8vsrBiBtKktK5o3YWnTb1VxaQo326jiLqopKfxLCrdJB/Lz1Qe5Hi0zVXGxdRRqX5RymAOu1bh8RaG5dmO30BDFnTp18P9Z59hT1hRImzwf17YIxgMY0t1ticjjqpHLakv6NKUmHXVJ1cpPiN8yWwWftI4Sau23/a0fL85dA+h/KA8+Bd1bvutxo3WIvWXdL9W4JevHCaQ6+Wy6HSo31pRGKyzWhgm1yrorBXJ7rtyNLpCLKd75Rn/ECr4qTr8GxTHWcSglWtSXUzF98FLrIHvLqhFIm9rS4trxS5puA/CNJJ7+ujjvguoRhS+mIRp1pmJ5H+cKZilwgXWUUJqtHtY1jHeKyzWO/4Rofnas8UCpoNAbMX1I1pUHsrFA2mz0ot/qG28uAzCqq88RyH2xrbGrF4wt2pzedPQhFStPFM89rPy0m3mVdcOgmCRrGy4BcDg7IxfJE5gy+A5Mtc7RsawskBeGS+sZS5suiCte7MLqrO+p6pSasqL7MhSPdqlqmCqqv4CCB2YzpWLlic65LyjwRQCfyL5JaEqhFdoa+0o2T8VnZYG0mVdS1DB+SfNXAX280+MhIn9zfuyCp8v6L894wDC7bUVfiXh3Q/UL1lFyXsXyArj80Q5ypgKfB3Bk1r6bUCq1qOD8bDpltyNZWyBtakqjT4xb0lwp0Gl7/UihmJEfLbxh7jGy3SheOFU0lIjThwAcYR0lZ1XUHQsnYwXyGUDHAjiIpREuCv0mpgx93jrHgWR1gbR51yv8r77x5hEAynZ+q0lFLq0tjZquQhk6qoKqhusE+hMA+dZxcsasZXloLT4O6p0igtMA/zRA+u/4IWsjlBSPYuqQGdl63GNPWV8gLwyX1nHLNn5Z4vEXFPqSr/LlBaXRRutcoVLZWCRVDfcAONs6SqDds6IHtsixEPmkUwxXlRFoxQkAemD3NDcPaoSaYLm2xi/P5uMee8r6AmlTO7zvmxOebT412hj955zzJG6dJ1Rm1J0i8B8EMNg6SiDMVg9NKwcjJkdCvCMd9EiFHAP4x2GLHA3AaxtYtL87sCvowzaqHz8n24977Im/wtSxcnXoV3+DqPwwKB80Uk2Bq+F0x/n3MRS2/9dDX8AVQtHXQfsCKFJgIIDDsOO/h7Y/iigxcRU5C1Oya6mSA2GB0L5mrSqWWOxeKM60jkIUBir4BqYMuc06R6JYIPRhMxtOF18f2PlpmojSTIDf+VOHfNU6RzKyYjl3ygKqgsq6G8XXGpYHUabIs76/fbJ1imRxBELtC/BJPP9e3s6UKJOkTr3tJbjq6LXWSZLFAgm7yrpPC+S+nQd/iSgzNqmTU3H14Jetg3RHKM+uoZ2nm66p/45AvsOpTKKMalHoubh6SKDLAxyBhFRF4yDx/AegONU6ClHI+Ar9EqYOnW0dJBX4yTNsKuomiPOXsTyIMk9Vv5Er5QFOYYVIuUZQVH+TCKesiCyI4Mc6degd1jlSiVNYYVD19mDR+IMATrGOQhRGArnPnzLokqCscdVV/CSa62bUnyMaf4nlQWRFnvDXD7os18oDHIHksIrlBc71+JnuuJcK/52JLCie0fzIZzF54FbrKOnAN5ZcVPnWUNHIQ5Dd91AhosxbpD17nonL+71nHSRdOIWVayobPi+IvMjyIDKV8+UBjkByyD0rergtkZsVOt06ClG4ybPas8dncr08wALJEZWNHxXEHwbkBOsoROGmz2nPXhPDUB7gFFYOqKo7V+AvZXkQWdPn1G8JxchjF45AgmrWql6uNVapwKXWUYhoZ3lMP2aTdZJMYoEE0YwVHxfxZgM4zjoKEWGB+ts/F7byAKewAqiq7mIRbxnLgygr/EkPip8ZxvIA18IKkKq1vR3ev1NVvmwdhYh23op2/eCvYarErLNY4RRWEFTUHStOZgMYZh2FiNrXtrrZnzLo27m4PEkiOIWV7arqLhYnz7M8iLKCKuQGf+rgb4W9PMARSBarWN7HuYJZClxgHYWI2sVVZTKmDb7bOki2YIFkoxn1w0XwEICjrKMQUbtNqnIBpg2eax0km3AKK9tU1l0pgoUsD6KssUKho1ge++JZWNli1puHuFj+Xao6yToKEe0iz2qs9Qu49sg11kmyEaewskFV/QjR9imrI62jENEOAjzkHxS/FJcesc06S7biCMSSqqCyfroofgYg3zoOEbVTVf2BThtabh0k23EEYmXWqmJpif8Wov9hHYWIdtuiii9j2pA/WgcJAhaIhcr60wS4H8Ag6yhEtIv+Wz05F1cN+Yd1kqDgWViZpCqYUXeNANUsD6IsIvijtvplLI/EcASSKRXv9BPXei+Az1hHIaLdYgq9CVOH3mwdJIhYIJkwo2GMiN4PYKB1FCLarVHFPx9TDn/WOkhQ8SysdJqtHtbUf0dEbwLgWcchol2kVmOtF/L6ju7hCCRdZtQPFOABCE63jkJEu8VUUY6mwT9BufjWYYKOI5B0qKwbL8DvAQywjkJEu72lqhdj2tBF1kFyBc/CSrWq+usE8jTLgyhrqCgqNS9yHMsjtTgCSbVI62+kNf/jCr2CU4RE5lar87+mVx/+v9ZBchHf4NKlquEzovorAIOtoxCFkYjM8VWuwtRBTdZZchULJJ1uW9HX5Xm3KfBV6yhEIdKsgqmYMuRB6yC5jgWSCTPqJ4rgLo5GiNKrfdThtk/FVUevtc4SBiyQTPlgNHIJ/96JUu4tVVyNaUOesg4SJnwjy7TK+tNEUQXBJ62jEOWAmEBm+lLw35jSf7N1mLBhgVgo1wiK6qeIyA8A9LGOQxRIIi+qr1di2pBl1lHCigVi6c6Gjzhfb1HF+dZRiAKkWUW+h36D7sR5ErcOE2YskGwws+F08bUKwDDrKERZLCaQ3/h+5CZMP2yddRhigWSPWcvy0HLodSL635zWItqbPqmi12PK4a9ZJ6EPsECyza0NUZePGxR6DYAe1nGIbOm/FbgeU4c+YZ2E9sUCyVYzVh7hxP1IgQu4ZhmF0HoFyrF+8CyUS8w6DHWMBZLtKuuGCdxPAT3LOgpR+ul7AjfTz2v5CSYf9a51Gto/FkhQVNWfIZCfQvVE6yhEqddWHHKH7/RWXD10g3Ua6hoWSJCoCmbWnyUqNwEosY5DlAJbBfJrP9b6P7w7YPCwQIJqx2q/bUVyinUUoiRsE5FZPmI/xZQjVluHoeSwQIKuqm60qLuRx0goIDYJ5Le+h5/hqsFvW4eh7mGB5IqKxjJx+t+A/gf/XSkLrVTobXi/4G58c8AW6zCUGnyjyTV3NBzjPExV6GUAelvHobDTl1RwG9YNeYCn4+YeFkiuum1FX+R5lwkwBcCR1nEoVOIAnlRxt2HKoPnWYSh9WCC5rlwdovXjxLlrOL1FabZaIL/zvdgvcdURK63DUPrxzSRMKuuGOZWvq+BCAFHrOJQTfCiq1cksrBv0OKepwoUFEkYVywsg+eeI4KuATATgWUeioNG1IvitH5dfYfqQN63TkA0WSNjNWnkYWuQ8EbkMwKes41BW2wZItap/L5o2/wnlw1qsA5EtFgh9oLJxpIN/iQJfBFBsHYeyQgzQeSruAWzN+yNPwaU9sUBoX7PVw5q60524cxX4PIAB1pEoo3xAFiv0Afh5s3nzJuoMC4T2r1wd+tWPcurOUui5AI6yjkRpsQ2CherrE4i4R3iVOHUFC4S6TlVQ9XaZUz1HHSZC9QT+DgXaOgGe8CF/xvt58zg9RYnii5+Sd/tbhyLineGAiQo5A0A/60i0XzEolomg1hedi35DnsN5ErcORcHFAqHUKFeH/vUnwpeJAkzcudw8b8lrywf0ZVGZ74vWwm/5C6Yfs8k6FOUOFgilR8XyAnh5J8N3o0QwGsAojlDSLgaRV0T1WV90ASJ5CzB54HrrUJS7WCCUOTPf/hg0PtIBo9VHKQQfBxCxjhVgK0WwxAeWAPo8Inl/w+SBW61DUXiwQMjOPSt64H03DHF3ghP/eIUcD6Dtf4dYR8syrQBeF5F/+sCrUP8FeK1LcdXRa62DUbixQCj7zFh5BOCOh9OPO8jR6uNoSPvpwx/J8d/ZbQDe3F0Uvv9PKF5FwbrlmDy81Toc0d5y+cVIuebWhp7oqUchhqPhcJRTHKXAIACHAhgIoD+AfOuY+7ENkJWArhSgzhddCUgd1K1EXmwlJh/+jnVAokSwQCi3VLzTD3mthyKuh7VfQa9yqAP67Li5lvaGc31V9eDdX0P67Jwyc/vZattjNu84qwkbIIhDsQmKVjhshi/bxWErVJshWO+rrgfQBHXr4XQ9NLYW0rsJU/pvzuDfBFHa/f8AAAD//+kz98beaBqPAAAAAElFTkSuQmCC;" vertex="1" parent="1">
          <mxGeometry x="420" y="16" width="50" height="50" as="geometry" />
        </mxCell>
        <mxCell id="wBUlopVAqguZ6O6uspOy-26" value="" style="shape=image;verticalLabelPosition=bottom;labelBackgroundColor=default;verticalAlign=top;aspect=fixed;imageAspect=0;image=data:image/png,iVBORw0KGgoAAAANSUhEUgAAAQQAAAEECAYAAADOCEoKAAAACXBIWXMAAAsSAAALEgHS3X78AAARaElEQVR42u2dzW9j53WHf5SntB0BkeCk0FI0CiSLAhW96Fqcv2BklOhWnL/ArFBk6yt0VRSQOZtuTW26ElDOpluTQFbZhAyCrJqG6k5ZuFJaejyK49sFDyd3NPwU78e59z4PIGg8hq3LV+c+97znvu97KmEYCgBAknYYAgBACACAEAAAIQAAQgAAhAAACAEAEAIAIAQAQAgAgBAAACEAAEIAAIQAAAgBABACACAEAEAIAIAQAAAhAABCAACEAAAIAQAQAgAgBABACACAEAAAIQAAQgAAQAgAgBAAACEAAEIAAIQAAAgBABACACAEAEAIAIAQAAAhAABCAACEAAAIAQAQAgAgBABACACAEAAAIQAAQgAAhAAACAEAEAIAIAQAQAgAgBAAACEAAEIAAIQAAIAQAAAhAABCAACEAAAIAQA25wlDsB73V5W6pH1Js++zP69D377fShpKGleb4ZhRXWvcG/bHRuSvGyv+s7F9Rf/MmK9BJQxDRmF+ENYt8GqSjhL6USMTxFDSsNoM+yUe85qNeXTcDxlzhJDV0//EAvE448sZSOpJ6leb4bDAY74fGfNGQjf/JmPetzHvI4RySuDEAvJE0p7Ty7w2OXSLIAfLAmZjfuz0Mu9szHvVZthDCMVPS9sWkIc5u/xrSV2Twzhn496S1HIsgVVy6BQ5WyudEHIckIt4aUHadzzmM/m2HGdgm9YeOtVm2EUI+RZBkMNsYJOsIfAUpFaQbUk6LeiY30nqmBxuEQIiQAzzx7xuN8pxSca8kGIolBBKKIJ5aW07zamETQ2CAmcE64ghqDbDDkLwI4KyPZ3WqTG0kyw+2mvDtn3tMeS6ltTK+2vLXAshEpSfE4/zU9pqMwwSqhN0S5yJrZJxK6/TiNwKgaDcaBrRiuO1mQk4kPQZw7pSxq08rmPIpRDuryoBWUG681yblvUQ8EZc2tTtFiEkN0XoK7m9BaSz88e9LekLhu/RtYWTvCxs2smRDBqa7lpDBo/nmdbfoan7q8r+/VWlhwy24lBS396AIYSYZNCS9JWoZm+dIaxbBbfXiX2TCGzHnqQv768q7l9Nup8y2CBSxIqHj9d5FWn1gj4CLl9dYce5DLrIIDbO15TBCTJIlFObQuwjhM1lcEr8xMK1pgu31pma/TsySJwjr1JwJ4Sbs939b7rv/QIZxEqwKkU1GXzJUKUnhfvfP/n5zdnuPkJYTuf/fvP+337/uvI1MRMLg1WbnpBB+ry+efJq8p/Vv5bU9yQFV0K4OdvtSjoNv6voD6MPPkIKsdBeIYMGMkhfBt/8tvphdPrgRQo73mQw+2ekEAsvli2Iiaw+hGxkIG9S2HEig9a8mgFS2Io7TfcdLJJBTbxN8CCDqBQ6pRfCzdnu0pQVKTyahYVEq273kIEbGcw4vTnbDbK8zkwXJt2c7dY0PR9/ZWBWnoT64dG3X++8H35EeK1kVG2G9SXZQVe8xfEmgyifHlxMMpnKZZ0hrP2UIlPYiPYSGbSRgWsZSFLXHpblEcLN2W5HG25UQgprsXC/ghUR2ajkWwayh2R5MgSrGzxqSXL4XUX/++sPPlKoV4TcO9wtyg6sbtBliNzLYMZRFvWEnQxksL+t/b5/XdEffvXBh0jhHTpL9isEYut4XmQw43N7eBY6Q+gohur2nyY7SOFtFu5XsKkCm8TyJYPo/ZIaqb5lMNt9Fef/873d7/XDv/n2lSr6sOSx+OmiM/zuryrDAmQHA/25tfutpm+nHjJ7mtaVbNfutGQw4/zgYhIUUQhjJXAmXwZSiAbn0AJ0HjX7SjpAB9Vm2Fggg7wefxZLF2xbmj3rMn2UQxnM+PjgYjIujBBuznYTDcyEpTDSdFVfb5tz962wFw3QuOT4ybybxn7eWPlZgDSb9nSTOEAkqWa/KchAkl4eXExOCiEEKyQmHpgxS+FO06p8J6mGJzH1QXxRbYaL3izk5bSpgaYrK/tp/cC4unylJIMZTw8uJv0iCCFQSsemxyCF1PskbtEF6U5Sbd7T1J6Gv0MEyYkhZRlI0uDgYtLItRDSyg5ikELmPfoe0QjlHxZdr/Plya76IT6mA1gGMkglS0hDCKllB1tIwdXBl2v2qly4X8F5djDQtE+Bu0NG121Gk6EMEs8SEhVCFtnBhlJw3XJrRYeqp0uWKHvNDs6T6DWZQLbQ1YLj5zOWQeJZQtILk1rKsMK9YvHSyObfbg8IsZvnExNXlGX7FfY1raJ7myI89y4DG/PbajM8kXTuVAbSilOwPAuhnfXILZDCZbUZ1vPQc89eJ9ZMYLObq71izPecyaCRZpE2Rhk/dygDSXqW1G7IxIRwc7Yb67veGKVwWW2GrZwF562m6xZGWv0atOVQBkPlEJPYc2cySPRhm2SG4OqmMyn8R95kMEcKnSXzXzcSzrsMolL49r//4h8dXlorN0KwYqK3noCXP/6nV82cB+ftimmOp9pBO+8ymPGX//zNv2r6JsoTe5aF5yJD8FbUGhxcTFoqMM6KiS/yVjNYhcXPwNll5UYInm6+a4eCSoKGfBQTB4uWUheAE737xgchrDFdOPY0aAcXk9sSCMGD9O6cPQzizhJunX2+2KcNOwUNzBnnBxeTocqBh3FPbCOYIyn0JL0s6u89CSE0vEwV0jpUwkH9wMN04ToPC49iwtOUqOFdCF4yhJbKQ4ObJNUsYaw5Kxkz4vDmbLfuUgh2YS4KW0nvG0cIbzHyvAQ8qemR/BQYGy6F4Gi6EJQsOI8d3BylwgqMXiRY9yqEuoPBGZUpO7Atu1nXDroqJ14ePA2EwNPKS1ZW2nbyVkvwsFjpMK5W8nELIeujvu9KGKC1jH9+WbMDb5+/7koIcVY6t3lalWQRkpes7Loo+xW2oI8QfD6pypq+1hnvzKcNIweX4m7K4CFD6JcwJvcYb+JOMdWS4hTCfsYDMirbdMFWKGbJEBcUS4xFyhB4WqXLXdH3LeRMjMfehMAvJX1qjLebOgIZgrMpwxghMN5ZTlmzvoA41iLEKYSs1yDwxEIIWeKhflX3JISs07ZbYhIAIQAAQgAAhAAACAEAEAIAIATIAQ2G4C2Oi/Ah4hRCpufL3ZztEqDpss8QvIk9L2Mx9iSEIQGaOlmuvThCBW/wsNM3liXUO/xSck2mEnaw25LYczxlGGf8WQhOboQyx941QiA4h9wICCHO+69IQtgrW2Gx2gyz3r/xzNrQlxZrtrqHEPwJQSpH2/eHDBhzPr87IThpjlLG4MxaxC2E4IK+KyEY1xkPymEJ1yNkLYTj+6tKraTThZaT6YLLKYPk45CSsj2xPGRmQUmzAy8dr+/iOsatiEI4vTnbLdMTy8WYly1LsEz0qGgxELcQ+k4GqDRPLHvTMGLMU6dbxCwxViE46rpctizBw7ifOuhEnVZ20JZ0iBDWY+BkkLoIIXU6JZDBvrNs6C7OB3ESQvDS7+/YFo0ghBTH/P6q0i74WHfl581C7L/7IgtBkrqOtqYmXUfwkpl9UdSpg00Vnjm7rJ5rIdjrj2sng7Wn8nQo9vQ5e0Vb0nxztluX9EXRs8OdEgTn8c3ZboAQUuVQBeq1aQVqj59nFHcbuaSE4K249LmtKivytGHsaNogSUf3V5VuAWSwb7Ldc3h5sd9niQjBrDVyNnhfFl0K8vdm5TTPUjAZ9OX3dKheLoTgNEvQD/7q/l/uryq5lcL9VSW4v6qcrAiQO0/X/Prmyd///mc/uMpbcTcyTfAqg8sk2hcmKQRXwbn709dfv3/w3Y8lfZlHKdiT9nNJnUUFO3vb0HMkg1ff/Lb6Yfhd5e8k9fOyWMwKiEP5PjcykcwrMSGYvXpeZFD90Z8+ik4f7q8qnZyIYP/+qtKTdGp/dajlm2oCTzKI1hQkDb3vRrVXi790WjOYcZ3UquBKGIZJp12/cyaDKANJJw5OHlokg7o9CeY9qT62QuK8/66vDPsEzJHBQ15ICjx17LZY7Sof/RWeH1xM8pUhWJYwlnTpVAayX/54xbw8s3qBPamOHpEyBo5lIEmfWbZw4kQGgU0R8iCD66RkkHiGYIPdkPSVQxnMyxZai566KYqgYTf7OptnnlabYd9LlrCmDOaNe5DFxjh76xTI10alzLKDVIRgA99Tiks+HyGDKJeSgrTFYCIINryJr6vNsLbk//eVcxlEGUnqJBnsFov7mh6i086ZCGbZQS3JH5CWEFKrJWwpg4di6C56AscogpYF6GOf5ufVZhhkmSXEIIMod5oWo3sHF5NejBI4sa9nyi/PkxZmKkKwX0pXf66Ue5fBW1aeBWhccrCaxexrL4YbqD4vo7Gi5C9zJINFU4q+zfHHBxeT4Rqx1pBU07RXR0PFaDuXeHaQthD2NT0Ici9HMph38w0jAXq7TBK2XqAeCc56Qk/sy2ozbC24hsREnIIMVk0xom8pajmcAmzC0zTqLKkJwaTQVgI7xlKSgfuAmScnk1LsIs5YBmXj5cHFJJU3Mqk2ez24mHQU8x4HZPCGuQutbI1FgAxyy51SPN05i+7PLWSQCEeLTiuqNsOOYtoJiQxSJ4h7i7MrIVhR6BwZJBM8Sw4maWnLvSXIIHUGllWrsEIwKQTbTB2QwUL2Fk0P7C1EGxnkaqqQ+krOnQw/8MljnljIYCWfLTrTsNoMu3rEUnJkkAmtLPZ6ZCYEmxe1kEEiLEsz25tkZ8ggE17EtSgrTxmC7EOfI4PYOV505oO9dVirnoAMMqsbZHaU/U7Wn97qCZfIIHaCJQepDFfNT5FBJoyUcXv5HScDsTCNRQaPZulBKraI6TkycMNdVnWDKKmuVFzGvAMtkUEsfLxs56adHPUZMshcBo119mmUJUOYHbn25s0DMoiN7rJ/WW2G7dmUDRlkxokHGbgSgklhLKmx+5PX/4UMYuPYzkZYJoXWH//nvX9DBpnw3FHXdD9ThgdpbN2mD3vESywsPEjlwbStq4S3qMM7Muh6uqAdj6NkVfC6/DV7ySuHdkbjqgytpQzPwCxZzeATbzJwmyFEMgXvnXPyFoT1dY6GS2qbOrz5PTS81AxykSFEMoVbTU+8eUkcbc2e1uymZRtqnstZF6gCMJJU9yoD9xnCg2wh0LRzEWzH03WPgrMORn1Ry4mDl3KwziDXGcKDbCGQ9ClPra3T1bUD0p5kNfnqKp1Hzg8uJifeZZCrDCGSKdQ0PfSUusJmbNWlypqZkKFtLuATT68VCycEphCPCsrATk3aCjvNuKtiH2ZaqilCYYRgUljW+xAS6EZlS8wDRZY7wzsCbmW1fbnUQniQLbRF8SsalG07ECURrOCIjN/GXRPbUgohUlsIxEq7FzZFSCUorT9ip+QyHkhqe36dWDohPJhGdJSPTr5xkklPysg0ol3CLO3aRNArygcqnBAiYmho8+apiAAxrCuCwOPSY4RQzqnErCGqCxEsEENL+eywvGpqEOTpNSJCWCyGIgTpyKZDvbRqBDHIYdbUNq9CvtO0eNpJs2EKQki/ztCyQPUuh1n36a7tAs0lOWvJHntLeoSQLznMAtXLK7SBBWQ/zxJYQw4N++6h3jDSdN9Gv2wSQAjLpxUNTc9imH1POlijLeb76248KpggouNdT0nMg8i4D8swHUAI8UiipukGn4b91ez7JrK41rQluywAby0Yxx6Lgk4k0bBxj35J6781io750Ma8L2nMzY8QAGANdhgCAEAIAIAQAAAhAABCAACEAAAIAQAQAgAgBABACACAEAAAIQAAQgAAhAAACAEAEAIAIAQAQAgAgBAAACEAAEIAAIQAAAgBABACACAEAEAIAIAQAAAhAABCAABACACAEAAAIQAAQgAAhAAACAEAEAIAIAQAQAgAgBAAACEAAEIAAIQAAAgBABACACAEAEAIAIAQAAAhAABCAACEAAAIAQAQAgAgBABACACAEAAAIQAAQgAAhAAAgBAAACEAAEIAAIQAAAgBADbn/wGeiccwi3HFyQAAAABJRU5ErkJggg==;" vertex="1" parent="1">
          <mxGeometry x="50" y="104" width="50" height="50" as="geometry" />
        </mxCell>
        <mxCell id="wBUlopVAqguZ6O6uspOy-27" value="" style="rounded=0;whiteSpace=wrap;html=1;" vertex="1" parent="1">
          <mxGeometry x="285" y="586" width="380" height="340" as="geometry" />
        </mxCell>
        <mxCell id="wBUlopVAqguZ6O6uspOy-28" value="Log Experiments" style="edgeStyle=orthogonalEdgeStyle;rounded=0;orthogonalLoop=1;jettySize=auto;html=1;entryX=0;entryY=0.5;entryDx=0;entryDy=0;" edge="1" parent="1" source="wBUlopVAqguZ6O6uspOy-30" target="wBUlopVAqguZ6O6uspOy-37">
          <mxGeometry relative="1" as="geometry" />
        </mxCell>
        <mxCell id="wBUlopVAqguZ6O6uspOy-29" value="Commit Work(save)" style="edgeStyle=orthogonalEdgeStyle;rounded=0;orthogonalLoop=1;jettySize=auto;html=1;entryX=0;entryY=0.4;entryDx=0;entryDy=0;entryPerimeter=0;" edge="1" parent="1" source="wBUlopVAqguZ6O6uspOy-30" target="wBUlopVAqguZ6O6uspOy-32">
          <mxGeometry relative="1" as="geometry">
            <Array as="points">
              <mxPoint x="85" y="1038" />
            </Array>
          </mxGeometry>
        </mxCell>
        <mxCell id="wBUlopVAqguZ6O6uspOy-30" value="COLAB" style="rounded=0;whiteSpace=wrap;html=1;" vertex="1" parent="1">
          <mxGeometry x="15" y="734" width="120" height="60" as="geometry" />
        </mxCell>
        <mxCell id="wBUlopVAqguZ6O6uspOy-31" style="edgeStyle=orthogonalEdgeStyle;rounded=0;orthogonalLoop=1;jettySize=auto;html=1;" edge="1" parent="1" source="wBUlopVAqguZ6O6uspOy-32" target="wBUlopVAqguZ6O6uspOy-34">
          <mxGeometry relative="1" as="geometry" />
        </mxCell>
        <mxCell id="wBUlopVAqguZ6O6uspOy-57" style="edgeStyle=orthogonalEdgeStyle;rounded=0;orthogonalLoop=1;jettySize=auto;html=1;entryX=0;entryY=0.5;entryDx=0;entryDy=0;" edge="1" parent="1" source="wBUlopVAqguZ6O6uspOy-32" target="wBUlopVAqguZ6O6uspOy-56">
          <mxGeometry relative="1" as="geometry" />
        </mxCell>
        <mxCell id="wBUlopVAqguZ6O6uspOy-32" value="Github" style="rounded=0;whiteSpace=wrap;html=1;" vertex="1" parent="1">
          <mxGeometry x="155" y="1014" width="120" height="60" as="geometry" />
        </mxCell>
        <mxCell id="wBUlopVAqguZ6O6uspOy-33" style="edgeStyle=orthogonalEdgeStyle;rounded=0;orthogonalLoop=1;jettySize=auto;html=1;" edge="1" parent="1" source="wBUlopVAqguZ6O6uspOy-34" target="wBUlopVAqguZ6O6uspOy-37">
          <mxGeometry relative="1" as="geometry">
            <mxPoint x="445" y="824" as="targetPoint" />
          </mxGeometry>
        </mxCell>
        <mxCell id="wBUlopVAqguZ6O6uspOy-34" value="Model Retraining&lt;br&gt;CI/CD" style="rounded=0;whiteSpace=wrap;html=1;" vertex="1" parent="1">
          <mxGeometry x="300" y="950" width="120" height="60" as="geometry" />
        </mxCell>
        <mxCell id="wBUlopVAqguZ6O6uspOy-35" value="App Used &lt;br&gt;For Testing" style="rounded=0;whiteSpace=wrap;html=1;" vertex="1" parent="1">
          <mxGeometry x="695" y="734" width="120" height="60" as="geometry" />
        </mxCell>
        <mxCell id="wBUlopVAqguZ6O6uspOy-36" style="edgeStyle=orthogonalEdgeStyle;rounded=0;orthogonalLoop=1;jettySize=auto;html=1;" edge="1" parent="1" source="wBUlopVAqguZ6O6uspOy-37" target="wBUlopVAqguZ6O6uspOy-39">
          <mxGeometry relative="1" as="geometry" />
        </mxCell>
        <mxCell id="wBUlopVAqguZ6O6uspOy-37" value="Experiment Tracking" style="rounded=0;whiteSpace=wrap;html=1;" vertex="1" parent="1">
          <mxGeometry x="315" y="734" width="90" height="60" as="geometry" />
        </mxCell>
        <mxCell id="wBUlopVAqguZ6O6uspOy-38" style="edgeStyle=orthogonalEdgeStyle;rounded=0;orthogonalLoop=1;jettySize=auto;html=1;entryX=0;entryY=0.5;entryDx=0;entryDy=0;" edge="1" parent="1" source="wBUlopVAqguZ6O6uspOy-49" target="wBUlopVAqguZ6O6uspOy-35">
          <mxGeometry relative="1" as="geometry" />
        </mxCell>
        <mxCell id="wBUlopVAqguZ6O6uspOy-39" value="Model Reg" style="rounded=0;whiteSpace=wrap;html=1;" vertex="1" parent="1">
          <mxGeometry x="500" y="644" width="55" height="240" as="geometry" />
        </mxCell>
        <mxCell id="wBUlopVAqguZ6O6uspOy-40" value="" style="dashed=0;outlineConnect=0;html=1;align=center;labelPosition=center;verticalLabelPosition=bottom;verticalAlign=top;shape=mxgraph.weblogos.github" vertex="1" parent="1">
          <mxGeometry x="197.5" y="994" width="35" height="35" as="geometry" />
        </mxCell>
        <mxCell id="wBUlopVAqguZ6O6uspOy-41" value="" style="shape=image;verticalLabelPosition=bottom;labelBackgroundColor=default;verticalAlign=top;aspect=fixed;imageAspect=0;image=data:image/webp,UklGRgwNAABXRUJQVlA4WAoAAAAwAAAAcwIAcwIASUNDUFQCAAAAAAJUbGNtcwQwAABtbnRyUkdCIFhZWiAH5QADAAIAEQARAAhhY3NwQVBQTAAAAAAAAAAAAAAAAAAAAAAAAAAAAAAAAAAA9tYAAQAAAADTLWxjbXMAAAAAAAAAAAAAAAAAAAAAAAAAAAAAAAAAAAAAAAAAAAAAAAAAAAAAAAAAAAAAAAtkZXNjAAABCAAAAD5jcHJ0AAABSAAAAEx3dHB0AAABlAAAABRjaGFkAAABqAAAACxyWFlaAAAB1AAAABRiWFlaAAAB6AAAABRnWFlaAAAB/AAAABRyVFJDAAACEAAAACBnVFJDAAACEAAAACBiVFJDAAACEAAAACBjaHJtAAACMAAAACRtbHVjAAAAAAAAAAEAAAAMZW5VUwAAACIAAAAcAHMAUgBHAEIAIABJAEUAQwA2ADEAOQA2ADYALQAyAC4AMQAAbWx1YwAAAAAAAAABAAAADGVuVVMAAAAwAAAAHABOAG8AIABjAG8AcAB5AHIAaQBnAGgAdAAsACAAdQBzAGUAIABmAHIAZQBlAGwAeVhZWiAAAAAAAAD21gABAAAAANMtc2YzMgAAAAAAAQxCAAAF3v//8yUAAAeTAAD9kP//+6H///2iAAAD3AAAwG5YWVogAAAAAAAAb6AAADj1AAADkFhZWiAAAAAAAAAknwAAD4QAALbDWFlaIAAAAAAAAGKXAAC3hwAAGNlwYXJhAAAAAAADAAAAAmZmAADypwAADVkAABPQAAAKW2Nocm0AAAAAAAMAAAAAo9cAAFR7AABMzQAAmZoAACZmAAAPXFZQOEyRCgAAL3PCnBBvoKBtG8b8yp/MLg1FjSQps+Bf4e6BAMbnGUjbJv7u3822KwbABJrahEYzkkz6HQCFUQDk34MDs3O5Zfo33lrfsaDIu3NdFlDBYdA2kqMk/Flf/QIgIiaAX9QGxwSYuapmTli004zvSkfaNkeSkivoitWbaPC6OgJ7Z4sDjCikt8pHVhNjrW4wVUPOWniMuVr0hbhPi6rM/L/vnx+ZEf2Hw0iSIqmqR6dYsHaf+U260ba3kSRY3bVdzbzW3QwmgBVtrmh3RQhnjnfaRwRXqANOWPqimRb4/+97cXZE/+UgkiRJUjTBkmAr/ZuXw+lwa9uWm6iF+63lKWImdQnKaMMlqCRllAr/DeemEf1n2LZtJIs3RO8bwBmuxf8U/1P8T/E/xf8U/1P8T/E/xf8U/1P8z39n8/FB+GxkszwIyx6etlj+DGv9tLJXbh6sJ/xgr2yHjRxabP9mT5vLoSffWyu/9+XQYO6judxLc7mX5nI/zeYQvjOWB2gsD9FUHqSpPEhTeZiGcgQN5QgayjE0k6NoJkexMptDOGkkR9JIjqWNHEsTOZomcjwt5HgayAk0kFNoH6fQPE6ieZxG6ziNxnEijeNU2sapNI3Nxj9CMBt/CcFq/CKEDDSMc9AuzkGzOAvN4jy0ivPQKM5Eo1hF7kN5OBk/qditIL/+ZfwY+Nh88Yb3fod5HoagIL8eT8/LeT7wfm2Yna8V+RrjMF2PvL4Wv0vsjDlHvUJvtv1GHxNbPT6Om/w3yzu+Z3itHR/GnWeWt33f0Fo5PvwSz5t98V+TOitJlyb+Lqd14+mXkcj7fmAonZfka8zJ0BBaNZ5+Hqlc8oPD59ykW7k8HMz4JJmz5xT3+mH+t8vwnOZy9rykyrzjXObvGDFcVow/jXm2ad72MUNlvfjHCGRX5jBmRkQWINcKyDmM6VbFYwkyrYjMwo13E9JYK/45nhKSARg5JNaKv4+nxGQAxg6HleLXI5hDIJci43crCsuQZIXlfBsd28cM1omP4f4X+uvGxw+BpciwojLynCbgW4oLbFDjMgT/31foFiO/YRnKy8T8HXDLkd6ETMNGtwkPBPMMvnrOyBicg2xBrtebm4wYbOm3ECTJ3aCmcgzmPLfxXVxLktycDMJJp1EtyhU79iUKp4FaG6b7X/iXAM3DtCypO/usjMIAiBYmdIOqkvMDg+m2RoCWJrJZGc73/PxOhWdpElfPAhmGIdAsTmAFMg5jgFmeuA2qQsZhECzLk1aJTMCQdqEMQGpTS8EEjOkxkBG6Q62eRTIBowBZDT5cKpIZGAbGEARvUKNnBRkY5msUYxBTuQwdGIR1F8QYpFQnUzAQhJXg6VKDDB0YREKwErxUKHMwFIBRiNig6mTuGZEbnxQ3DIFNnRUkYajT0laBV/XJv79kaeMAKO+oDR4mJ2E0SQPlOW2DmjsryMJoI0kj0VuxNMLIT/4WNBKtVUslDLpNKGYoOlfPcpmGCaSMRV/1Mg0zCBmLtg2qXlph/PhbxGB0lSaXfWR4LGI0euqQAphCwmi07OzNMnyDliO/4UhYBGrOCryQcvz9awh4XKBD8omYNH8n96/PgUdftUtBMSx6m3A7BGaeLnVJCUyT1YjU1iYlME9OI1K7QbVJN8wef+czJPEd+6KBiU5nMyaF9UkNTJXLtLwqQCYPDFLlMShtZ9vKswIRzJXFqBRtUK3SDxXH3zmMSk0pUnWDZlkTphuWknqlCKq0ByHg0rd6Vh0mq2C+VOMyvwh0SxnMl2ZgkjsOsrykz++mGZnJ+qUM5vc4yYR8vNQvdbCCBEMzVYDUwRLijc3EBpUghbBCX0caPG8FdS4FhbBEd+MMnr/CZUghLCLObDxdypKKA4MqooxOTU1nBUpYRoThGdugQqXuxY7Ovf6w8RkpUyZfyVLG6UHjM1CMlMJCBszFq2KkFlbSbwbOFoEcqYWVjHrNwETN/2rEgfrjbyJ/+fLV/ZKkDwLWhET+8uUgWD17DpPFsJgNcxDYUYoaVrNmHn59KUuCoOf4e2UWXhcrRTdoxXq8MguvSpNyWK3LIdBw4LKT51Fu/grP9DFwUg/r9SNN2sBJ/TO4VaA0wILNdeZmyEUlqcyDIQ9xqzjpgEXxELUUdEBwjSYtkFulSQsE12HSAsE1lvTAujFwcbnso+6uMBAlTbAwRbmZcha4ipImWJqa3JtyiFwDSRcsjoGQw2QbLE5FHm05i1zjSBus3g3s4UgbLN8cmxTpg+gaTRoODNBRpBF2oBs3Y17UgmrcG7OJHUMaodh1xFmBE7JrCImBvDenEdIJu+wKLAnSCtk1gPRCeADphY1oxLM5Z7FrLGk4U4bnP0w2w1bUof0/fhO85pZgiPgGM03KX+wIr5ulHTZrjkeztEN6XumH9LpV+iG9ZpUASM8qAbAjHXgAZBO9ZpQEiM+4FCTAlrsy5+cZkVU9QdEnERAfQRpv0PB1l2RAfM0kGc/g55IQ2BczN0guwldNEgL5ec4KkBD55nS3SApsbU7Kl5is4me5O8NAft0hMZBfdUgMNGBVuezDgK6XINgfG4+gnGWA/m8+EASIjHtQDhlQ1ZIIyY/O6rMCFDSgiyUKGlDFEgUdEEsUdKBLJQs6UC0ScmDggFSCYe+b0wzcYHkRCALuYNlA5uf4LAUGZUHXSRpkAc4zLmdZoJM4aEGXSRy0oKokD3qgkjzoQRdJIMQJlhsw3zy7gsoDMJuAgLIA85QHVbIUJEITLBLxYkcPmkIioQdVIZHQBIFkQhNaXjIhlR+zMy/ZkP78l5dQaEJLSygEA8R9oUIXspIK0aDwJTar0IDwiM1FLsgk7AbNhZaTWAhXTmYk9xk2pCQX0u1KRmYkGLpQMxIMbchIMLShxSUZEhLlD+issiEvkQcGiAS5ofOQDTUsF4Lk9/WXk8s+IM2zMCjhkJIMz/Cc5UNQwiEnCe7gOQRKgKXQoREhiYc+tIjEQx9qRP5fQaI/cEckHrJK5VzyoRE1LsEHBkb0qVwA0tKN2wJ5ES7ZuFsgm5zoE7kAFDDN+F8pK0BiiXEil4P0N6f7fbkEJO6jYDwskU3MwuNduQaEFh7vyTUgteh4Ty4CqeXGbZF8C1twvCMXgdwy436RPAUuNN7KVSC4+PhymdwFLjwel8k3+V5Exhu5DEQXGa/lMtCLdiXXgV7UK7kQ9KJf5ELQi3aRC0Ev6kUuBM34t5SVIL8bvP8EoZV/fj70jzeiOtCLiutf+CQLes21w4pTZPmSBz0mowk95jrZiNN02WTDp84Z7cGHk85Z7WHHMfZuYqcpsw8L+8px9nBgpyLN8sO/rZGj7e+gv0474j4/VM/uyHH3+UTtjJ9Ujr5d++FE3WObtt2vnBK92X2u5aHjy+3ivtOnX6wOVe/YyDtck7u+eV2d1M3asTp2+lyNZ7rjpn3azZy+nT6nvu/rvXaR6Vzdnm88b9umZno2utc+3b9fuaOk027Rts0E996v16/UzB1lvTntFp+vrl0NcWPXzV7bLva7mTtqe3PWdYtFu2zTTOo6zxWqm9U1ap8u9rvk+/oIvoaz2bSL6WzZyhmuxf8U/1P8T/E/xf8U/1P8T/E/xf8U/1P8z/+TpAAA;" vertex="1" parent="1">
          <mxGeometry x="735" y="710" width="48" height="48" as="geometry" />
        </mxCell>
        <mxCell id="wBUlopVAqguZ6O6uspOy-42" value="MLFlow Server" style="shape=image;verticalLabelPosition=bottom;labelBackgroundColor=default;verticalAlign=top;aspect=fixed;imageAspect=0;image=data:image/png,iVBORw0KGgoAAAANSUhEUgAAAZAAAAGQCAYAAACAvzbMAAA9HUlEQVR4nOzdCXxU5b0+8Of3nkkCiEgmAZGyuHaRWjdIAqKyVWqv2ttW1GqrVatUWdReq+3/2jbdbmtbt5BgqbW2Wjew2lqvXDEJ2IICYrVaaysqZBHZEhABIZk5v/8nYREhgcxkZn5z5jzfz6eVJDPnPB/IzDPve855TwREOeaUhesOLuiR119bY8Wec8UKvxgixaLaTyH9APSBoi9EPAH6KDQPQG8ABQL0UmgvQAp2bi4mwHsd7UeBTQA2o+3nis0i2ADBZl+l7c+bRbFB4a9V59ZKHG/HXWztmBH91paL+Jn9GyFKD7EOQJSISbPVe/fw5oG+L0PV4XBVfyhUhjrBUAWGYsf/eljn3I84gLWArgZkFYB3FPKGU31DnHuzdUvrGwvG9t9sHZKoK1gglJXOXK4F25o3ftypfgKC4wD9BIBPAjgcQJ51vjRbDeANKN4Qp2/Cl9f8iPdS7cmHvAURtQ5HtAsLhMx9euG6gX6elKjKyQCOFWkviiMBcIr1w95TxcsQfdmpe8n3/JcOkpZ//Hn4wK3WwSicWCCUUacsXHdwTw8n+84rhWqJCEoADLLOFWBxVSwXYLEKFjlfF1WXFf2LIxXKBBYIpdWYpWsHRDQyTqFjAYwE8AkAzjpXjmsC9FmFW+QUi2Lvv7tswdgjtlmHotzDAqGUGv3XjYUF+bHTFW6cQMcBGGadiXQ7IEtFdJ4CT506ougFnglGqcACoW6ZNFu9jYdvHK0aP1Mh4wGcCMCzzkX7tV6ApxX6VMTTeU8N7/eOdSAKJhYIJeyUhesO7hFxE0XkHIV+FkCRdSZKmgJ4GdCnfOceP3144XMcnVBXsUCoS85YtLq/H4l8RoFJAD69x4V2lFvWC2SuL5jjbymcu2CsxKwDUfZigVCnxixdO8DzvfMBXAjBCP6+hM4agT4Ghz/ENhctYJnQ3viGQB9y5uKmPi2inxfIhQqM5/EM2mk9BI8q8LvakqJnrcNQdmCBUPuB8A1HNI2F7y5W6BcAHGSdibLa6wI8GPPdbxeMLFxpHYbssEBCbOzz6z7mfHclgEt4IJySEAfwNAS/jW/Z9CdeaxI+LJCQmfSq5jdvaf48VCYDOoa/A5QKAmxQ1Qc9z905b0T0H9Z5KDP45hESYxY3DYoIvqbAVQD6W+eh3KWKRRDc4W+NPsYD77mNBZLLVGXC0uYzFLhux6m3XEKEMmoFBFXxPHf3ghMLN1qHodRjgeSgk5dp3iHx5v8U4JtA++m3RJa2CWQO4vh59ajoK9ZhKHVYIDmk/QrxPHcFgGsBDLbOQ7QXBfAkgB/XlBY9Zx2Guo8FkgN2XCWed7UC0wBErfMQHUj7cRInN9eWRP9snYWSxwIJsInL1h3WGve+LfCv5NIiFETtReLJj2tHROdaZ6HEsUACaMyyTcWReMv1CpkOoKd1HqIUeFmgtxTWFd0/5zyJW4ehrmGBBMjEZ9+Nxr3Y9J1nVfWxzkOUBq8q8P3a0qI51kHowFggAXDKwnUHF+R5Vwv0WwD6WuchSjcFalT9G+eX9XvBOgt1jgWSxdpPx401T3GC7ypQaJ2HKMNUoQ9GELlpXmnfFdZhaF8skCw14fn1E9SX23lLWCK0QnAP/Nh3a8oOXWMdhj7AAskyE55tPk4jegu0/cpxIvrAJkB+HO1dePucYdJiHYZYIFlj4rPvRmMu9j0IrgYQsc5DlMWWCzCturToKesgYccCMTZmvkYivZqnKfA9AIdY5yEKDMXD6ut/1Y4qfts6SlixQAx9eumGE3z1f8X1qoiStlWAnxf2jv4Pp7UyjwVi4Oxlq3q9H8//rkKu5y1jiVLidVVMqy0rmmcdJExYIBk2bmnz2aJaCWCIdRaiHKNQ/C5e4K7j8vGZwQLJkDFL1w6IaORnCv2KdRaiHLdaVL9eXVb8J+sguY4FkgHjFjddKoLbeJCcKIMUv+VoJL1YIGl05t/e69fS2jILwOetsxCF1GpAr6opLf6jdZBcxAJJk3GLm84Qh3ugGGidhSjsBJijyLuqprRPk3WWXMIL1lLsjL+vPii+Le8WAFdCWdBE2UCBcwWtzwHtU8mUInyDS6Fxz68vEV/uA/BR6yxEtNt6X+WS+WXRJ62D5BpnHSAXlKu68Yubviu+LGJ5EGUPhT7jWv3jWR7pwRFIN41ZtqnYi7e2jTo+Y52FiHZTKGZsjESvf2G4tFqHyVUskG4Yv3T9CKjMBnC4dRYi2m2tABdzscX04xRWkiYsbr4SKgtZHkTZROZHPP8Elkdm8CysBJ25uKlPq+DXCp1knYWIdosL8KPCusIfzjlP4tZhwoJTWAmY8PyGE9WPzwHkKOssRLRbo4q7qLak8C/WQcKGU1hdNH5x07nq+wtZHkRZRFEdl/gIlocNFsiBqMq4Jc03QvAwgF7WcYioXUyA759aGp24oKT/auswYcUprP04c7kWtDZvuIsr6BJllQbfyZfmj4gusg4SdiyQTuy8vuNRAKdaZyGiHUTkcS/mXfrUqEOarbMQC6RDE55tPk49fZyn6BJljZhCbqotKfwZRNQ6DO3A03j3Mm5p89mq+gCA3tZZiKiNvumgFzxd2m+ZdRL6MB5E38OEJesvFtVHWR5EWeOx7S2RESyP7MQRyE7jFzddozuWeua0HpG9bVB8q6as6A7rINQ5FoiqjF/a9FMAN1hHIaJ2rztx5z9dWviSdRDaP886gKVJs9U7bEvzLECmWWchonaPiCdnV4+I1lkHoQML7XTNmcu1oKW5+fcAzrXOQkScsgqiUBbImPlre3sHeY9C8WnrLERhp4p/CeT8mrLoy9ZZKDGhm8KasKz5EPGkGsBp1lmIwk4g93k9Wz9XPbxfo3UWSlyoRiA7l2Kfp0CpdRaikNsMkatqSqK/tw5CyQvNWVhn/H31QS3b8GewPIis/dNzcv68EdF/WAeh7gnFhYRt5RHflvckp62IbAnkvl7e9hEsj9yQ8yOQ9vLYnv8EoCwPIjvvKWRyTWn0QesglDo5fQzk7GWrem31e/wvVMdYZyEKLZG/xWOx8xeM6v+GdRRKrZwdgbSVx5Z4/pMCPd06C1FIKRQz8qOFN8w9RrZbh6HUy8kCmTRbveZ48+8FYHkQ2dgkgiuqS4tmWweh9Mm960BU5bAtzb8CcKF1FKKQWibOm1BdEl1oHYTSK+fOwpqwtOknAC63zkEUQgpFRbR39JTqEX3fsg5D6ZdTB9HHL22+GqpV1jmIQqhJIJdUl0b/1zoIZU7OFMj4xc0XQPT+XBxVEWUzAZbEfHfBgpGFK62zUGblRIGMW7J+nABPAlJgnYUoRNrPstoYiV7/wnBptQ5DmRf4Ahn33LqTxLlneBtaooxaA8VXasqKnrYOQnYCPd0zZunaAeLcH1keRBkkssC1+iexPCiwBTJm/ooennqPARhsnYUoJHyB3hxdWTjh6dH9VlmHIXuBvZDQ69WnEkCZdQ6ikFir7VNWxfOsg1D2CGSBjF/SfAOgvNaDKDNq4xK/aEFp/9XWQSi7BO4g+oQlzf+h0MeDPP1GVnQ7IGsAvN32XwEaVXUDBBtVsQGiG53De6Jea8yPbW57hue8ElWdaZ3cSExEvjN6ROHPykV86zCUfQI1Ahm/uOlYhT7A8qD9aFXg36J4VYHlcPqmqHvTtcbfTGbefvyS5sPSEzPrNfhOvjR/RHRRtXWSMJmtHpoaPoGrhgTifimBKZDRf91YCIk9Dkgf6yyUNdpGCX8TwVIFlvnAPza56Ou8JqG79M9A/qXzR/Rpsk4SKhWNg2Rtw/0AjteZdSfh6qFZvxxMMApEVXo8v+G3qnKUdRQy9bZCnxG4v3gOiw5ZUfjanPMkbh0qh7QA+HZNSdFtEFHrMKEyo/4cEf83AIravhRfHtbyV09B+bAW62j7E4gCGf988zdUcY51Dsq4Taqodg7/F4vF5/OGRGm1Qp1eUDuieKl1kFCpWF7gXI+fKXTaXsekh7vig2/2gesM0x1Q1hfI+CVNI6H4iXUOypjXBfqYiDe32fV9ltNR6aeKR/0Cd/mCEws3WmcJlcrGj4roQ6p6Ykc/VuAaVDb8BVMHP5b5cF2T1QUyfsmmIqD1IQB51lkorV4S0T/EIY/NLyl61TpMeOh2Ba6vLSuutE4SOlV1F4v6VdD9rqIhAv2Nzlj5EqYdviKD6bosewtEVbB0w90AhlhHobRohOJR59w9T5cUvmQdJoRW+j4umD+yeIl1kFCpWtvb6faZqvqVLj6jr4h7SMtfPTUbj4dkbYGMX7rhm4B+zjoHpVSLQh+BeLNqR/T9Kw/UGhE8lO9j8tyRxZuso4RKZd0w0W0PKzAswWeWuOLeP/KBG9KULGlZeSHh2OebT3G+LsjmgqOENIroLPXjd9WUHbrGOkwixi9pPmvHaa054X1Ruba6LPor6yCh0z5lJb8E0DPJLagqzsS0IU+lOFm3ZN0b9Bl/X31QfJv/O0CyLhslRiAvAH7FBq/oQR4MN/dvH+78+WWFf7cOEiqz3jzExfLvUtVJ3dySiODXetuK43DdEVlzskPWvUnHt+XdDoDXewTXVoX+TkWq5pdEeUA8K8i9Xo+Wq2uOH7DFOkmoVDaUSqs+qNAjUrTFQS7f+4UPfC1F2+u2rCqQcYubzgDARRKDaTMUv4lE/J8+NbzfO9ZhqN37UHy7pix6h3WQUFEVVNZPF+jPU30GqSouR2XDo5g6+MlUbjdZWXMMZOKz70ZjkdgrUAy0zkIJ2QjBrfE8NyMXryMI7DEQwSsS1/OrRxa/Zh0lVG5/61DxIvdCcEba9qF4R1vlk/jG4Oa07aOLsmYEEnOxmSyPQNkKxa/z8/N/NPekg9dZh6EPCOQ+V9By1TxOWWVWZd2nBXIvgAFp3Y/gMFfg3+EDXT0VOG2yokDGLWmaBOB86xzUJTGF3pXn6Q85VZV13lPI5JrS6IPWQUKlXCMoqr9JIN/J1ErhqvJlVNX9CVOGPpKJ/XXGvEDOWLS6fxzglbABoECNi8t1NaOKXrHOQnvTF5365z9d1n+5dZJQqWo4WrThIUBOzvSuRVGls1YtwOSB6zO9713MCyQeyZ8FaH/rHLRf//ZVvjG/LJoVB+5oLyJV+YXR/5p7jGy3jhIqVXXniupdAPraBJD+Lhb7qeVZWaYFMn7J+v8E9D8tM9B+bRPg5rxo9Cd8c8pKmyC4sqYk+rB1kFC5taGny8dPVXW6dRRVXIaZDffh6sHPWOzf7M5+Zy9b1QuQ26z2Twci8z1PT6wuLSpneWQfgbygnndSTUkRyyOTKuqOlTxdqrAvj51E4lqJWctMFpw1K5CtsYIfADjcav/UqWaIfKWmNDpu3vDif1mHoX2oArcV9i4cVTu875vWYUKlqu5icfI8BJ+0jvIhbXli/U0KzeQ6kAnPNh+nnr7AZdqzzv9qXCfXjip+2zpItsiy60DeheJrNWVFpmfehE77ciR5s1Sz+kzRrerFh+GqI1ZmcqcZH4GUqzr19Fcsj6yyUSAX1ZQWncXyyE6qWCSefIrlkWEVDSXSmvdilpdHm14Sd7/I9E4zXiALn98wGUBZpvdLnVoszju5ujT6gHUQ6pBCUfFuJDq2eni03jpMaKgKZtRdI04XAkjVWlZpJl9EZd1ZGd1jJnc2fvGaQ0UirylQmMn9UodiAvy4sC76wznnSdw6TLYynsJa76tcwtOnM2zWysOk1fs9oOOsoyThLfW3H4vpx2TkxJeMnsYrLvITVZaHOcEq8eX86rLoQuso1DGFPuO16oU1o/utss4SKhV1E6RV7gM0vcuRpM+R8AqmArglEzvL2BTW2CUbjlfFJZnaH3XqLxHnD2d5ZK0dU1Ze0aefZnlkTrlGMKOuXJw8lfa1rNJMFDehsrEoE/vK2AhE4N9iedowQVX15qL6ops4ZZW1Viv0otqy4lrrIKFS+dZQQeMDgIyyjpIifR38/+cD/5XuHWXkDX38kuazBBifiX1Rh7ap6iW1ZcXfZnlkK5kf8fyTaktZHhk1o+GLgsiLgOZKebRTYCqqGo5O937SXiCTZqsH6E/TvR/qhGCVOj29tqz4Puso1KG4AN+P1hV+mqsbZ9CtDT1dZcMdIvoIcvOknnwH/VG6d5L2KawNh2+4Eoph6d4P7UsgL0hL/BzOpWetRhV3UU1J4V+sg4RK1cpPiOrDChxnHSWdVHEeqlZWYMrhz6ZrH2kdgZyycN3Bqvq9dO6DOqGozlMdx/LIUorquMRH1LI8Mquq7mJRtww5Xh47iaj8ov2aljRJ6wikICL/D8Ch6dwHdeg38fejk+eOlZh1ENpHq0D+u7q08BdtL2/rMKFx24q+kud+DZUvWkfJLBmJmfVnAUjLtUxpK5Dxi9ccCpFsWbEyNFTxo9qyou9Y56AO1QH4UnVp9DnrIKFSVT9CFA+1XyMRQqJSrqpPpOMDS/qmsCRyA4Beads+7UvwXZZHdhKRxyPxyEk1pUUsj0zZtRyJYmFYy2Onk3Bn3WfTseG0jEDaRx/A19OxbeqQQnFdTWnRHdZBaB8xhdxUM6LwZ5yyyqA73+gvMxt+C5EzraNkA/Hd91X1yVT/DqZnBMLRRyb5qri8pozlkX30TQd/ZG1p9GaWRwZV1o2XWP5LULA8PnAyZjZOTPVGU14gY5auHcDRR8aoQqbUlhXdYx2E9vHY9pbIiKdL+y2zDhIau5YjgcyD4DDrONlG/NSfEZvyAnHqcfSRGQqRqbWl0V9aB6EP2QbFtTWlRV9YeGrfDdZhQuOOVUOkuGGBiHyPSyZ1QlCGyrpPp3KTKf2Lbht9CEcfGSHQa2pKojOtc9CH/NuJG8npxAyrbPi8eLGXAJxiHSXbCVx5KreX0gLZOfromcpt0r4E+H51afEM6xy0J70/vjU+/OmSwpesk4RG+3Ik9b8U6KM5uhxJGugozGgYk6qtpewsrNF/3VgoiF+Rqu1Rp2ZVlxal9FMEdcs2KL5VU1bMUUcmzVjxcZH25Ug+ZR0laET0OgUWpGJbKRuB5Of7VwLonartUYceidZFp1iHoN3+6QuGc8oqw6rqLhbxloHlkayzMfPtj6ViQykpkJOXaZ5Ap6ZiW9Sp53t52y/hcuzZQSD3eT1aS+aXFL1qnSU0Kpb3cTPqHxCV3wE4yDpOgInzYyn5IJqSAjkk1nQBgEGp2BZ1aCU0dvafhw/cah2EsBkiX6kujV487/gBW6zDhMaM+uHiCv6mgi9ZR8kFCrkMtzZEu7udlBSIiExLxXaoQ5s8J2fXlB26xjoI4Z+ek5E1JdHfWwcJjV3LkQgWATjKOk4OOQh5ell3N9LtApnw3LoxAEZ0dzvUobgqJs0bEf2HdZCwE+gv41s3ncx/iwyb2fhdEbkdQL51lFwjIlPbL77shu6fheV510G5SkM6iMhNNaXRedY5wkxFNjno+dUlxbOts4SS+BVQuTjkiyGmiQ5FUf3nAcxJdgvdutHI+CXrPgq413jlZxoI/lAzIjqJayhR6M2oHy6CvwLoYR0lBy3SqUNGJ/vkbr3xi7irWB5p8dq2Fv9SlgcRgGlDlinvLZQup6CyLulbjif95j/pVc33VS9K9vnUqW1O3IWLRvd7zzoIUdaYMvgugd5vHSMXOUjSB9OTLpANmzecK5B+yT6fOiYq13A5DKJ9+dLz6xAst86RaxS4BBXLC5J5btIFogIuW5J6j1SXRX9lHYIoK03pv1mBiwC0WkfJMUWQHmcl88SkCuTTi9ceA9XTk3kudapBPPmadQiirDZlyPOq+L51jFwjTi9P5nlJFYgv7mvdPYOLPkQFuKJ6ePRd6yBEWa9p8E+A9gsLKVUUE3HHqiGJPi3hAhkzXyOAfCXR51HnFFJZXVr0lHUOokAoF1813vYh9n3rKDnEwYtdnPiTEhTp2fw5gLeLTKHlB3nbvmUdgihQph3xL4VyKiuFBLgM5ZpQJyRcICq4NNHnUKfUibuCiyQSJaH/kF8AeN46Rg45Av3qRyXyhIQKZPRfNxYCSOk9dcNMFb9+uqTwGescRIF0nsTVtZ94ErOOkiuc4ryEHp/Ig3vk+ZO4qFnKrG5p9W60DkEUaFcPfllEqqxj5AqFTMJs9br6+IQKxBdNqJ2ocyK4ZuGpfTdY5yAKOr9Hj+8AaLTOkSMGYH1jl9fG6nKBjFm6doAAKbsZe8jVVpcUcXVXolS4vN97qrjeOkaucPGuDxS6XCAe3Hnt/6HuiktcrrUOQZRTpg15GDtW7KVuUsGkrt4npOtTWCrndycU7aSoqh4VfcU6BlGu0bh/DQDfOkcO6IeiutO68sAuFciEZc1DAIzsdixq3t7qlVuHIMpJ0w9/URS83XAKOHFdmsbqUoGor5O4dEkKCP6HB86J0sd33k0AtlnnCDqFfr4rFxV2bQpLcU4qQoVcXX5htNI6BFFOm/KRBlHcaR0j+KQ/oo3DD/SoAxbIzosHE7o6kfYl0O/OPUa2W+cgynV+fuR/AGyyzhF44n/2QA85YIEU5PkTAXTpiDx16tXRJUWcmyXKhMkD1wv0dusYQSciZx7oMQeewhI/qRuN0B5UflQuwrNDiDLEz4vdCmCjdY6AG4473+i/vwfst0AmtV/SLhNTHitclkfrC+dYhyAKlclHvSvgsZBucojn7ff9f78FsmHIhpEAilMeK0xEfjDnPIlbxyAKGx/uFgCbrXMEmdP9T2Ptt0DU4YAHUWh/9M3oysIHrVMQhdLUQU0C/No6RpCp4Iz9La54gGMgyuMf3SHuVo4+iOz48chtXO69W4qwrq60sx92WiBjlq4dAMUn0xYr9zV7BS2/sw5BFGrXDKwX4FHrGIGmblxnP+q0QDx4p/Pq824QVM47fsAW6xhEYefD8ZTebhDFqZ39rNMCUdXT05Yo5+l2+LGZ1imIqP1YyHNQLLaOEViCUZ2tzttpgQiE9/5I3iM1ZYeusQ5BRDuoU57Sm7zeKGo4oaMfdFggZyxa3R/Ax9MeK2e5WdYJiGgP290cAM3WMQJL0OHy7h0WSCySx+MfyXutpqRwoXUIItrDNwa/L9D7rWMElUjHx0E6LBAR4fGPJCl0JkTUOgcRfZiv7i7rDIGlOK2j5d07PgaiyuMfyWkR5PPCQaJsNG3wKwCWWccIqCiK6z+x9zf3KZDxSzYVATg2Y7FyiCqeqCnt02Sdg4g6ppzGSp5g9N7f2qdA1MVKePwjOQ56r3UGItoPr/UBXpmeHOfj5H2+t8+jfP+kTAXKMes3RIqetA5BRPtx1dFroai1jhFEKnLi3t/bp0AEbkTGEuUQgT7ywnBptc5BRPunDjxOmZzjMGtZ3p7f6OAguh7wPrjUAYc/WEcgoi5Q92dOYyWlALEBw/b8xocKpH0BReAjGY8VfE2xzUULrEMQURdMHdQEyF+sYwSS739oGst9+IsIp6+S88cFY4WfaIgCQgWPWWcIIifaeYFAlQfQk6Aif7LOQESJcHzNJkEhH+qIDxWIAByBJG7bQW5bjXUIIkrAlI80QPEP6xgBdMKedyjc+yD6pzKfJ/AW/Hn4wK3WIYgoMeLwf9YZAuggrGs8YtcXuwtkzPy1vQEMMosVUALltR9EAeSrskCSofjorj/uLhDpKR/jFeiJE/X5S0gUROs3/xUA7xqaKNGP7frj7gJxzttnoSw6oMany/ovtw5BREkoH9YCwXPWMYLGKY7Z/eddfxDlDaQSJZD51hmIKHkK8HqQBClk3xGIirJAEqXKiweJgkx4QWHidN9jIOAIJGF+xHvGOgMRdUPP2BIA261jBMxHUNV+0tWOAhkzXyOAHm2dKmDW1g7v+6Z1CCLqhkuP2AbgJesYASNAS3tftBdIXs91RwBSYJ0qWHSJdQIi6j6BLrXOEDi+334cpL1A4vCOsM4TQIutAxBR9/nA89YZAkdkCHYViAgGW+cJGifgCIQoF6jPAkmQkx2rtrcXiPIK9IS5WN6L1hmIKAWaDn+dFxQmRnWPAhFgiHWggGl8atQhzdYhiCgFysUH8E/rGMHif1Ag4BRWYhSvWEcgotQRcGXexLiB2D2F5bNAEiLKAiHKIb7gVesMwaIDUa5u10F03sY2AQL+shHlFJ8jkATloe+Kfm70XzcWAjjYOk2gqLxuHYGIUsgJLwpOlHMDXV5BfKB1jqCJRfLesM5ARCkUWVPX9tK2jhEoEQx0Ebhi6xwBs3HB8D7rrUMQUQpNHt4KoN46RqDEvULna7zQOkfA8P4fRLlIwZmFRDj0daIStc4RMHXWAYgo9UTQaJ0hUFT7Oh9ggSRC8LZ1BCJKi1XWAYLECQ5xIsIprASICguEKAf5gnesMwRK2whE4HMEkhgWCFEu8jkCSYi4Q5yK9LXOESQi/hrrDESUBs5fax0hSLRtBAKgyDpIsHhN1gmIKC02WAcImL4OyqvQE6FOuQovUU5SFkhC5OC2EUgP6xhB4vJaOAIhykXrtvLDYUI00lYg+dYxAqR13vEDeOMZolxUPqwFwPvWMYJD8jgCScxW6wBElFbbrAMEB0cgieKnE6JcpiyQrtM8p9AC6xgBwhEIUS4TFkjXScQJhCOQruMvF1Fu4yxDl2meA5THQLqu1ToAEaWVWgcIDok4cARCRLSLWAcIkPaD6NR1/HRClNv4Gk9AW4HErUMEh/KXiyi3cQTSddvbCqTFOkVwCEdsRLktYh0gQFo4AkkMTzggym29rAMEhu4YgfDMoq5jgRDlNhZIV4m0sEAS09M6ABGlFV/jXaYcgSSIv1xEuapcuTZgInTHMZCYdY4A6T1mvvIgG1EuKn67kGdhJUB4DCRRgoPf4y2AiXJRXKPWEYJFWxxE3rOOESR5sW2F1hmIKA1EeHvvRIhsdFDdaJ0jSOKeY4EQ5SJRvrYTID42OlWwQBKh7lDrCESUBqKHWUcIFNH1zjm8a50jSEQx0DoDEaWB4CPWEYLEVzQ7nyOQxIiyQIhykFMWSII2OIAjkIRwBEKUk1RlkHWGQBE0O+EIJFGDrQMQURqI8rWdmA1OnXIEkpgjrQMQUYqpCl/bifKanMa12TpGwBw+abZ61iGIKIV+VTcAQG/rGIHipNlFHFZZ5wiYvHWDN3KoS5RLWt0x1hECR/PedmhlgSQqEokfbZ2BiFKKr+nEbMCU/ptd31XFa7igYmJUcax1BiJKHQccZ50hYOrb/s/NOU/iANZYpwkS9eWT1hmIKHUUwgJJiDRgR/G2/+29bR0nSETAAiHKKT4LJAEC3aNAhAWSoGE7T/sjoqCrWjEAkP7WMYLEBxqxq0AEwgJJTJ9PL1nHg25EuUDdcOsIwcMRSLeoREZYZyCi7nMqJdYZAkfdh46B1FvnCRxRFghRDlABCyRh8Tp8MIUVf906TtD4PlggREG341gmCyQx76Np6AcFElHHAkmQCE6a9KrmW+cgom6YWfdxALwTYUL03ygXH7sKZG5Z0SYAq61jBUzP9Vs3cBRCFGTqxlhHCBpReW3Xn90e3+coJEEu7p9mnYGIkucAFkiCfJF/7fozC6Q7RE63jkBESVIVBfgaTpT6+45AVPFvs0DBdQqPgxAFVFX9sQAOtY4RPG7fEYiDLjfLE1y9N27ZONI6BBElQeVM6wgBFEfv2O6u+KBAIhyBJCPuxz9jnYGIEicifO0mbiUuPWLbri92F8ghbxW1tcpWs1gBJYKJ1hmIKEFVa3sDOto6RvDIi3t+tbtA2pd1V/zDJFOgyQkTl607zDoFESXA3zYBQIF1jKBR+H/b8+s9z8KCiP4t44mCT1rj3uesQxBR1zng89YZAmrZnl98qECg7sVMp8kFDspfRqKgmLUsTwVnW8cIIAW8/Y1A4hyBJEGBsaP/upHLIRAFQbz4DC5fkpQVmDqoac9vfKhAItHiVwC0ZjxW8OXl58XOsg5BRAfmfPdF6wxBJHtNX2HvApl7jGwH8M+MpsoRInK+dQYiOoDyV/MVOMc6RhD5Ki/s/T239zdEwGms5Ewcv3gNr2olymZFvT/X9v/WMQJJ/AMXiPq6z4OoSyIq3iTrEETUORH5snWGgPLh9h1c7FMgznmLMhYpxzjwl5Moa1W80w8Aly9Jir6Mq4du2Pu7+xTIKSP6vgxgY8Zy5RAFSscubRpmnYOIOuC1tn3Ay7OOEUQi7pmOvr9PgZRL+52mOApJkigut85ARPsSxdesMwSV7+uCjr6/T4Gg/ZO0/DXtiXKUAJeOfLahp3UOItrDjJXjABxrHSOgFPmRhR39oMMCgSgLJHl9e0UO+oJ1CCL6gHPe160zBNjLmDxwfUc/6LBA3nXR57kybzeoTrGOQEQ7zagfqKpcry5JAunw+Ac6K5AXhksrIEvSmiq3jRz73PpS6xBE1H525DQAvHNoknxBYgWC9tbRv6QtUQh4Tq6xzkAUerNW9VLRK6xjBJgi4nXaBZ0WiEJq0hYpBBQ4d8zipkHWOYhCLRa/jFeed8sLnR3/wP4KJL618DleD9IteR5wrXUIotCarZ6o8jXYDQJ9cn8/77RAFoyVmABPpyVVWAi+fubf3utnHYMolNbVXwTgKOsYQeaLPLG/n3daIO1PVsxNeaJwOailpWWadQii0GkffeD/WccINl2LdYP3uzbi/gvExefumM6npAmmj3lxQ1/rGEShsqbxS4B8zDpGkAnkCZS3r0zSqf0WyIKS/qshwtvcds8h3nZ/unUIotBoG30I/ts6RtD5Kvs9/oEDFQh2LO9+wI3QAQiuP2PR6v7WMYhCYV3jZYB+3DpGwLWgV495B3rQAQsEjsdBUuDgeCTveusQRDnv1oaeovod6xg54Blc3u+9Az3ogAVStDK6BECn5wFTl00d9+z6j1iHIMppBf41AAZbxwg6he737KtdDlggc86TuCoeS0mqcOvpIvJD6xBEOWvWqmJRudE6Rg7wofJIVx544CmsHUuUz+l2JIIqLhm/dP0I6xxEuci1xn4EgGc8dpsswLQhq7ryyC4VSLQ+WgtgbbdzkYPK7VAV6yBEOaVi5YkK3jAqFRT+w119bJcKZM55Egc4jZUio8YtbT7XOgRRzlAVce52AJ51lBzQCnh/6OqDu1Qg2HFQZXbSkehDBLhlzPy1va1zEOWEqvovAzjNOkZOEFRj6qCmrj68ywVyWknRAgDvJB2M9jTY6+V93zoEUeBVNhYJ8AvrGLlCoQ8l8vguF0i5iA9VTmOlzjUTnt9wonUIoiBz8G8BhBfppsY2RGJ/SuQJXS4QtN8qXXk2Vup48P07J81WztsSJaOybrwCF1vHyCFzMfmodxN5QkIFMrqs+C8A6hOORR1SoLRpSPN11jmIAqdqbW+BzNpxSJFSQRW/TfQ5CRVI+zSWJL4T6pyI/mjs0qZh1jmIgsT579/Ke32kkOIdNA1OeN3DhAqkTTzu7mm/UpFSRAo8xd2cyiLqoqr6M1SE13ykkAjuRrnEEn1ewgWyYGThSgh4v/QUUqC0eUjTDdY5iLJeZWOR+O2zIJy6Sh3fV/83yTwx4QLZsTtJame0HyI/GL+kaaR1DKKspSoC/24IDrOOkmNqMO3wFck8MakCiR5c+ChX6E25CIDfn7m4qY91EKKsVFk/HcDnrGPkGlW9K9nnJlUgc4ZJCxQPJLtT6tSRLaIzrUMQZZ2ZDZ8SkZ9ax8hB66Etjyf75OSmsACIL79O9rm0P3LRhKVNV1inIMoas948RFQfAdDDOkquEeB3mH7M9mSfn3SBVI+KviLAkmSfT51TRcXYxetOts5BZK5cnbTm3QfFMdZRclDcF/lldzaQdIGg/VxeuaM7z6dO9XDiHh2zbFOxdZDQqqw7D5X1XKDPWlH9dwGcbR0jRz2OKYPf6M4GulUg73qFbcPKxu5sgzo1xMVbp1iHCJ17VvRwVfV3CuRhQHlCg6WqurNFhPc3TxMVvbW72+hWgbwwXFpFpKq7IWgfMQG+f1pJlLfAzaTKxo/KFvecKr5uHSX0KuqOFZX7uvseRZ1ahilDF3Z3I93+x9m23c0CsKW726Hd6lRwenVpUXn70jGUGVV15wr8pYCcYB0l9KpWDBAncwEcYh0lV6mmZgn8bhfIwlP7blDovakIE3aqeHR7i3dibUnRs9ZZQuOeFT1cZcMdojKHb1hZ4NaGnuJ7jwEYYh0ld0kdmgZ3+a6D+xNJxUYEejsgkzncTNo2KL5VW1bEkxIyqbJumGyR2Qo91joKAZitnqxteBBAmXWUXKbQimTWvepISt7wa0r7vS7A/6ViWyH0GlRKa1gemVVVd7FAlgBgeWQDVXHrGmbxSvN00/eQ13p3qraWkhFIO6e3wZfPpmx74TBra3zrdc+NGvy+dZDQqFrb2+n7v1SVi6yj0AdcVeNPFLjcOkeuE8GdmuBNo/YnZVNO1SOKq1WxKFXby3GbFHJhTWnR11keGVTVeILo+8sULI+sMqPhBoXeaB0jBDb78fyU3j8+tccsPPlxSreXm55XzzuptjT6oHWQUKmqu1jUXwTIx6yj0B5m1F0jojdbxwgDgVRh+mHrUrnNlBZI7YjoXCiWpnKbOUShqIj2jo6uHd73TeswoVGxvI+rrH9QVH4HoJd1HNpDVcMVInKbdYyQ2OJ727t94eDeUncMZBeRHwL655RvN8AUug7OXdJesJQ5M+qHi+Ah5a1Ps09V/dWiWskbQ2WGQCr1qqPXpnq7KT/ttqY0+gSA51O93QCr9Vr1BJZHhlXWXSmChbxvdhaqapgqCpZH5qRl9IG0jEDafitUf6wif0zHtgMkJsCPR5dEf8AryjNo1puHuFj+Xao6yToKdaCy7kZR5X09MkhUZqRj9IF0XfhXXVr0uEBeSMe2A6LedzKGy5FkWGXjSGnN/zvLIwupiqusv03Am0Jl2GY/37slXRtPz5XjIurDD+sZWY/E893x80dEeUpzpqgKKhu+KfCfAXSodRzaS/mr+a6y4X4FrrWOEjaiuA2TB6bt9uNpW3qktrT4sZBdF7INimtrSosmLTixcKN1mNCYtapYKhv/LNCfAcizjkN7qVrbW4oPflwFX7KOEkJr/F49f57OHaR17SpV/a/2k5BynCr+5cOVcTmSDKusP01aYy9C9D+so1AH7lg1RHRb24fIidZRwkghN+Hyfu+lcx9pLZD5I4uXAEjJqo/ZSiD3RXq2Dp9fWvh36yyhoSrtF6AB1QAGWcehDlQ2jhQv1vb6/5R1lJB6Gf0H3ZPunaTlLKw9ifNuVD92NiAF6d5Xhm0SyFXVpdEHrIOESsU7/aSq4V6IfMY6CnViRsOFAv/XAHpaRwkrFXwT50k83ftJ+/Lr1SP6vgWVWeneT4Yti8fjJ7M8MmzGynHiWl8GwPLIRrOW5bXfW0X0fpaHqf/DlCHzMrGjjNy/Y3urVw6gORP7SrNdy5GcsmBU/27djJ4SMFs9zKgrF3FtL4oB1nGoA3c2fERa+89X6HTrKCEXVw/fzNTOMlIgC0/tuwGQQC+YptB1vspZNWVF18wZJi3WeUJjRv1AWdNQIyLfA+BZx6EOVNaNl7j/NwCnWEcJO4HcjauG/CNT+8vYHQTjW9+tALAyU/tLJQVq8jw9fn5Z9EnrLKHS9sYkeAGC062jUAfKNdI+MoQ8BUh/6ziEZt/b/p1M7jBjBbJg7BHb1MnVmdpfisQE+H5RXXTiU8P7vWMdJjQ+eGPilFW2unPF4VLcsIAjw+yhKjcgTUuWdCbji5lNWNr8J1U9J9P7TUKDqFxYXRZdaB0kVO5YNUS82APZMB2i0LMxdegT1jmyTmX9ZQK9HZCDraPQbgt1yuDTIJLR6+7SfhrvPhymIY5xAHpnfN9dJn+MxL3Lnxp1SC4c+A+OqrqzRWP3ACiyjkIdqFoxQNT75Y77lnMh3SwSU99NzXR5IJNTWLtUD4/WK+RHmd5vF+1YjqSk8AssjwwqfzXfzai/VVT+xPLIUlX1XxX1XttRHpRNBHILpg8yuZA58yMQAP7Wwlu8Xs0XZtlVqv924i54urTwJesgodI+ZdX6kAIjraNQB6oajhZfq6A4wzoKdajefz/vh1Y7z/gIBO0H1CUmKlOyZZ0sgdwX3xof/nQJyyOjZtT/p3ixlwBheWSbWxt6tp/IoPoPCMsjW6noVHxzwBar/ZuMQNpUl0UXjl/SdC+AS6wyAHgPIldVl0TvN8wQPhXLC5wruEWBKdZRqANVDV8Q1Z8DcqR1FNof/QOmDDW9fbhZgbTJz8v/5vbW7Z8VSD+D3S+Lx+Nf4hXlGXbnisMl7j2kQKl1FNpLRd2x4uRWqHL13Oy3XmNx8w9gJlNYu8w96eB1TnFFhnfL5UisVNV/SeLuZbA8sssdq4a4yvq7xckrXHo9GBRyJa49co11DtMRCNqnsor/NG7J+gcEcmEGdrcekEtryqI8tz+T7lnRw22J3Kyq03n6ZxaZtarYtcavV8SuUaCHdRzqGlHcq9MGP2adA9lQIG38fG+K1+KfltZ7O4gs0Jj/5dpRRW+nbR+0r6qVn5At7mGFHmcdhXaqeKefc63XaWtsmmb19VjUgUY/Fr/GOsQuplNYuyw4sXCjKi5P01lZcQG+H11ZOKF2VDHLI5Oq6i4WdUsBsDyywZ1v9HeVDT8V17pSgW9n98W81AFVkStw3RFZc8vsrBiBtKktK5o3YWnTb1VxaQo326jiLqopKfxLCrdJB/Lz1Qe5Hi0zVXGxdRRqX5RymAOu1bh8RaG5dmO30BDFnTp18P9Z59hT1hRImzwf17YIxgMY0t1ticjjqpHLakv6NKUmHXVJ1cpPiN8yWwWftI4Sau23/a0fL85dA+h/KA8+Bd1bvutxo3WIvWXdL9W4JevHCaQ6+Wy6HSo31pRGKyzWhgm1yrorBXJ7rtyNLpCLKd75Rn/ECr4qTr8GxTHWcSglWtSXUzF98FLrIHvLqhFIm9rS4trxS5puA/CNJJ7+ujjvguoRhS+mIRp1pmJ5H+cKZilwgXWUUJqtHtY1jHeKyzWO/4Rofnas8UCpoNAbMX1I1pUHsrFA2mz0ot/qG28uAzCqq88RyH2xrbGrF4wt2pzedPQhFStPFM89rPy0m3mVdcOgmCRrGy4BcDg7IxfJE5gy+A5Mtc7RsawskBeGS+sZS5suiCte7MLqrO+p6pSasqL7MhSPdqlqmCqqv4CCB2YzpWLlic65LyjwRQCfyL5JaEqhFdoa+0o2T8VnZYG0mVdS1DB+SfNXAX280+MhIn9zfuyCp8v6L894wDC7bUVfiXh3Q/UL1lFyXsXyArj80Q5ypgKfB3Bk1r6bUCq1qOD8bDpltyNZWyBtakqjT4xb0lwp0Gl7/UihmJEfLbxh7jGy3SheOFU0lIjThwAcYR0lZ1XUHQsnYwXyGUDHAjiIpREuCv0mpgx93jrHgWR1gbR51yv8r77x5hEAynZ+q0lFLq0tjZquQhk6qoKqhusE+hMA+dZxcsasZXloLT4O6p0igtMA/zRA+u/4IWsjlBSPYuqQGdl63GNPWV8gLwyX1nHLNn5Z4vEXFPqSr/LlBaXRRutcoVLZWCRVDfcAONs6SqDds6IHtsixEPmkUwxXlRFoxQkAemD3NDcPaoSaYLm2xi/P5uMee8r6AmlTO7zvmxOebT412hj955zzJG6dJ1Rm1J0i8B8EMNg6SiDMVg9NKwcjJkdCvCMd9EiFHAP4x2GLHA3AaxtYtL87sCvowzaqHz8n24977Im/wtSxcnXoV3+DqPwwKB80Uk2Bq+F0x/n3MRS2/9dDX8AVQtHXQfsCKFJgIIDDsOO/h7Y/iigxcRU5C1Oya6mSA2GB0L5mrSqWWOxeKM60jkIUBir4BqYMuc06R6JYIPRhMxtOF18f2PlpmojSTIDf+VOHfNU6RzKyYjl3ygKqgsq6G8XXGpYHUabIs76/fbJ1imRxBELtC/BJPP9e3s6UKJOkTr3tJbjq6LXWSZLFAgm7yrpPC+S+nQd/iSgzNqmTU3H14Jetg3RHKM+uoZ2nm66p/45AvsOpTKKMalHoubh6SKDLAxyBhFRF4yDx/AegONU6ClHI+Ar9EqYOnW0dJBX4yTNsKuomiPOXsTyIMk9Vv5Er5QFOYYVIuUZQVH+TCKesiCyI4Mc6degd1jlSiVNYYVD19mDR+IMATrGOQhRGArnPnzLokqCscdVV/CSa62bUnyMaf4nlQWRFnvDXD7os18oDHIHksIrlBc71+JnuuJcK/52JLCie0fzIZzF54FbrKOnAN5ZcVPnWUNHIQ5Dd91AhosxbpD17nonL+71nHSRdOIWVayobPi+IvMjyIDKV8+UBjkByyD0rergtkZsVOt06ClG4ybPas8dncr08wALJEZWNHxXEHwbkBOsoROGmz2nPXhPDUB7gFFYOqKo7V+AvZXkQWdPn1G8JxchjF45AgmrWql6uNVapwKXWUYhoZ3lMP2aTdZJMYoEE0YwVHxfxZgM4zjoKEWGB+ts/F7byAKewAqiq7mIRbxnLgygr/EkPip8ZxvIA18IKkKq1vR3ev1NVvmwdhYh23op2/eCvYarErLNY4RRWEFTUHStOZgMYZh2FiNrXtrrZnzLo27m4PEkiOIWV7arqLhYnz7M8iLKCKuQGf+rgb4W9PMARSBarWN7HuYJZClxgHYWI2sVVZTKmDb7bOki2YIFkoxn1w0XwEICjrKMQUbtNqnIBpg2eax0km3AKK9tU1l0pgoUsD6KssUKho1ge++JZWNli1puHuFj+Xao6yToKEe0iz2qs9Qu49sg11kmyEaewskFV/QjR9imrI62jENEOAjzkHxS/FJcesc06S7biCMSSqqCyfroofgYg3zoOEbVTVf2BThtabh0k23EEYmXWqmJpif8Wov9hHYWIdtuiii9j2pA/WgcJAhaIhcr60wS4H8Ag6yhEtIv+Wz05F1cN+Yd1kqDgWViZpCqYUXeNANUsD6IsIvijtvplLI/EcASSKRXv9BPXei+Az1hHIaLdYgq9CVOH3mwdJIhYIJkwo2GMiN4PYKB1FCLarVHFPx9TDn/WOkhQ8SysdJqtHtbUf0dEbwLgWcchol2kVmOtF/L6ju7hCCRdZtQPFOABCE63jkJEu8VUUY6mwT9BufjWYYKOI5B0qKwbL8DvAQywjkJEu72lqhdj2tBF1kFyBc/CSrWq+usE8jTLgyhrqCgqNS9yHMsjtTgCSbVI62+kNf/jCr2CU4RE5lar87+mVx/+v9ZBchHf4NKlquEzovorAIOtoxCFkYjM8VWuwtRBTdZZchULJJ1uW9HX5Xm3KfBV6yhEIdKsgqmYMuRB6yC5jgWSCTPqJ4rgLo5GiNKrfdThtk/FVUevtc4SBiyQTPlgNHIJ/96JUu4tVVyNaUOesg4SJnwjy7TK+tNEUQXBJ62jEOWAmEBm+lLw35jSf7N1mLBhgVgo1wiK6qeIyA8A9LGOQxRIIi+qr1di2pBl1lHCigVi6c6Gjzhfb1HF+dZRiAKkWUW+h36D7sR5ErcOE2YskGwws+F08bUKwDDrKERZLCaQ3/h+5CZMP2yddRhigWSPWcvy0HLodSL635zWItqbPqmi12PK4a9ZJ6EPsECyza0NUZePGxR6DYAe1nGIbOm/FbgeU4c+YZ2E9sUCyVYzVh7hxP1IgQu4ZhmF0HoFyrF+8CyUS8w6DHWMBZLtKuuGCdxPAT3LOgpR+ul7AjfTz2v5CSYf9a51Gto/FkhQVNWfIZCfQvVE6yhEqddWHHKH7/RWXD10g3Ua6hoWSJCoCmbWnyUqNwEosY5DlAJbBfJrP9b6P7w7YPCwQIJqx2q/bUVyinUUoiRsE5FZPmI/xZQjVluHoeSwQIKuqm60qLuRx0goIDYJ5Le+h5/hqsFvW4eh7mGB5IqKxjJx+t+A/gf/XSkLrVTobXi/4G58c8AW6zCUGnyjyTV3NBzjPExV6GUAelvHobDTl1RwG9YNeYCn4+YeFkiuum1FX+R5lwkwBcCR1nEoVOIAnlRxt2HKoPnWYSh9WCC5rlwdovXjxLlrOL1FabZaIL/zvdgvcdURK63DUPrxzSRMKuuGOZWvq+BCAFHrOJQTfCiq1cksrBv0OKepwoUFEkYVywsg+eeI4KuATATgWUeioNG1IvitH5dfYfqQN63TkA0WSNjNWnkYWuQ8EbkMwKes41BW2wZItap/L5o2/wnlw1qsA5EtFgh9oLJxpIN/iQJfBFBsHYeyQgzQeSruAWzN+yNPwaU9sUBoX7PVw5q60524cxX4PIAB1pEoo3xAFiv0Afh5s3nzJuoMC4T2r1wd+tWPcurOUui5AI6yjkRpsQ2CherrE4i4R3iVOHUFC4S6TlVQ9XaZUz1HHSZC9QT+DgXaOgGe8CF/xvt58zg9RYnii5+Sd/tbhyLineGAiQo5A0A/60i0XzEolomg1hedi35DnsN5ErcORcHFAqHUKFeH/vUnwpeJAkzcudw8b8lrywf0ZVGZ74vWwm/5C6Yfs8k6FOUOFgilR8XyAnh5J8N3o0QwGsAojlDSLgaRV0T1WV90ASJ5CzB54HrrUJS7WCCUOTPf/hg0PtIBo9VHKQQfBxCxjhVgK0WwxAeWAPo8Inl/w+SBW61DUXiwQMjOPSt64H03DHF3ghP/eIUcD6Dtf4dYR8syrQBeF5F/+sCrUP8FeK1LcdXRa62DUbixQCj7zFh5BOCOh9OPO8jR6uNoSPvpwx/J8d/ZbQDe3F0Uvv9PKF5FwbrlmDy81Toc0d5y+cVIuebWhp7oqUchhqPhcJRTHKXAIACHAhgIoD+AfOuY+7ENkJWArhSgzhddCUgd1K1EXmwlJh/+jnVAokSwQCi3VLzTD3mthyKuh7VfQa9yqAP67Li5lvaGc31V9eDdX0P67Jwyc/vZattjNu84qwkbIIhDsQmKVjhshi/bxWErVJshWO+rrgfQBHXr4XQ9NLYW0rsJU/pvzuDfBFHa/f8AAAD//+kz98beaBqPAAAAAElFTkSuQmCC;" vertex="1" parent="1">
          <mxGeometry x="350" y="615" width="50" height="50" as="geometry" />
        </mxCell>
        <mxCell id="wBUlopVAqguZ6O6uspOy-43" value="" style="shape=image;verticalLabelPosition=bottom;labelBackgroundColor=default;verticalAlign=top;aspect=fixed;imageAspect=0;image=data:image/png,iVBORw0KGgoAAAANSUhEUgAAAQQAAAEECAYAAADOCEoKAAAACXBIWXMAAAsSAAALEgHS3X78AAARaElEQVR42u2dzW9j53WHf5SntB0BkeCk0FI0CiSLAhW96Fqcv2BklOhWnL/ArFBk6yt0VRSQOZtuTW26ElDOpluTQFbZhAyCrJqG6k5ZuFJaejyK49sFDyd3NPwU78e59z4PIGg8hq3LV+c+97znvu97KmEYCgBAknYYAgBACACAEAAAIQAAQgAAhAAACAEAEAIAIAQAQAgAgBAAACEAAEIAAIQAAAgBABACACAEAEAIAIAQAAAhAABCAACEAAAIAQAQAgAgBABACACAEAAAIQAAQgAAQAgAgBAAACEAAEIAAIQAAAgBABACACAEAEAIAIAQAAAhAABCAACEAAAIAQAQAgAgBABACACAEAAAIQAAQgAAhAAACAEAEAIAIAQAQAgAgBAAACEAAEIAAIQAAIAQAAAhAABCAACEAAAIAQA25wlDsB73V5W6pH1Js++zP69D377fShpKGleb4ZhRXWvcG/bHRuSvGyv+s7F9Rf/MmK9BJQxDRmF+ENYt8GqSjhL6USMTxFDSsNoM+yUe85qNeXTcDxlzhJDV0//EAvE448sZSOpJ6leb4bDAY74fGfNGQjf/JmPetzHvI4RySuDEAvJE0p7Ty7w2OXSLIAfLAmZjfuz0Mu9szHvVZthDCMVPS9sWkIc5u/xrSV2Twzhn496S1HIsgVVy6BQ5WyudEHIckIt4aUHadzzmM/m2HGdgm9YeOtVm2EUI+RZBkMNsYJOsIfAUpFaQbUk6LeiY30nqmBxuEQIiQAzzx7xuN8pxSca8kGIolBBKKIJ5aW07zamETQ2CAmcE64ghqDbDDkLwI4KyPZ3WqTG0kyw+2mvDtn3tMeS6ltTK+2vLXAshEpSfE4/zU9pqMwwSqhN0S5yJrZJxK6/TiNwKgaDcaBrRiuO1mQk4kPQZw7pSxq08rmPIpRDuryoBWUG681yblvUQ8EZc2tTtFiEkN0XoK7m9BaSz88e9LekLhu/RtYWTvCxs2smRDBqa7lpDBo/nmdbfoan7q8r+/VWlhwy24lBS396AIYSYZNCS9JWoZm+dIaxbBbfXiX2TCGzHnqQv768q7l9Nup8y2CBSxIqHj9d5FWn1gj4CLl9dYce5DLrIIDbO15TBCTJIlFObQuwjhM1lcEr8xMK1pgu31pma/TsySJwjr1JwJ4Sbs939b7rv/QIZxEqwKkU1GXzJUKUnhfvfP/n5zdnuPkJYTuf/fvP+337/uvI1MRMLg1WbnpBB+ry+efJq8p/Vv5bU9yQFV0K4OdvtSjoNv6voD6MPPkIKsdBeIYMGMkhfBt/8tvphdPrgRQo73mQw+2ekEAsvli2Iiaw+hGxkIG9S2HEig9a8mgFS2Io7TfcdLJJBTbxN8CCDqBQ6pRfCzdnu0pQVKTyahYVEq273kIEbGcw4vTnbDbK8zkwXJt2c7dY0PR9/ZWBWnoT64dG3X++8H35EeK1kVG2G9SXZQVe8xfEmgyifHlxMMpnKZZ0hrP2UIlPYiPYSGbSRgWsZSFLXHpblEcLN2W5HG25UQgprsXC/ghUR2ajkWwayh2R5MgSrGzxqSXL4XUX/++sPPlKoV4TcO9wtyg6sbtBliNzLYMZRFvWEnQxksL+t/b5/XdEffvXBh0jhHTpL9isEYut4XmQw43N7eBY6Q+gohur2nyY7SOFtFu5XsKkCm8TyJYPo/ZIaqb5lMNt9Fef/873d7/XDv/n2lSr6sOSx+OmiM/zuryrDAmQHA/25tfutpm+nHjJ7mtaVbNfutGQw4/zgYhIUUQhjJXAmXwZSiAbn0AJ0HjX7SjpAB9Vm2Fggg7wefxZLF2xbmj3rMn2UQxnM+PjgYjIujBBuznYTDcyEpTDSdFVfb5tz962wFw3QuOT4ybybxn7eWPlZgDSb9nSTOEAkqWa/KchAkl4eXExOCiEEKyQmHpgxS+FO06p8J6mGJzH1QXxRbYaL3izk5bSpgaYrK/tp/cC4unylJIMZTw8uJv0iCCFQSsemxyCF1PskbtEF6U5Sbd7T1J6Gv0MEyYkhZRlI0uDgYtLItRDSyg5ikELmPfoe0QjlHxZdr/Plya76IT6mA1gGMkglS0hDCKllB1tIwdXBl2v2qly4X8F5djDQtE+Bu0NG121Gk6EMEs8SEhVCFtnBhlJw3XJrRYeqp0uWKHvNDs6T6DWZQLbQ1YLj5zOWQeJZQtILk1rKsMK9YvHSyObfbg8IsZvnExNXlGX7FfY1raJ7myI89y4DG/PbajM8kXTuVAbSilOwPAuhnfXILZDCZbUZ1vPQc89eJ9ZMYLObq71izPecyaCRZpE2Rhk/dygDSXqW1G7IxIRwc7Yb67veGKVwWW2GrZwF562m6xZGWv0atOVQBkPlEJPYc2cySPRhm2SG4OqmMyn8R95kMEcKnSXzXzcSzrsMolL49r//4h8dXlorN0KwYqK3noCXP/6nV82cB+ftimmOp9pBO+8ymPGX//zNv2r6JsoTe5aF5yJD8FbUGhxcTFoqMM6KiS/yVjNYhcXPwNll5UYInm6+a4eCSoKGfBQTB4uWUheAE737xgchrDFdOPY0aAcXk9sSCMGD9O6cPQzizhJunX2+2KcNOwUNzBnnBxeTocqBh3FPbCOYIyn0JL0s6u89CSE0vEwV0jpUwkH9wMN04ToPC49iwtOUqOFdCF4yhJbKQ4ObJNUsYaw5Kxkz4vDmbLfuUgh2YS4KW0nvG0cIbzHyvAQ8qemR/BQYGy6F4Gi6EJQsOI8d3BylwgqMXiRY9yqEuoPBGZUpO7Atu1nXDroqJ14ePA2EwNPKS1ZW2nbyVkvwsFjpMK5W8nELIeujvu9KGKC1jH9+WbMDb5+/7koIcVY6t3lalWQRkpes7Loo+xW2oI8QfD6pypq+1hnvzKcNIweX4m7K4CFD6JcwJvcYb+JOMdWS4hTCfsYDMirbdMFWKGbJEBcUS4xFyhB4WqXLXdH3LeRMjMfehMAvJX1qjLebOgIZgrMpwxghMN5ZTlmzvoA41iLEKYSs1yDwxEIIWeKhflX3JISs07ZbYhIAIQAAQgAAhAAACAEAEAIAIATIAQ2G4C2Oi/Ah4hRCpufL3ZztEqDpss8QvIk9L2Mx9iSEIQGaOlmuvThCBW/wsNM3liXUO/xSck2mEnaw25LYczxlGGf8WQhOboQyx941QiA4h9wICCHO+69IQtgrW2Gx2gyz3r/xzNrQlxZrtrqHEPwJQSpH2/eHDBhzPr87IThpjlLG4MxaxC2E4IK+KyEY1xkPymEJ1yNkLYTj+6tKraTThZaT6YLLKYPk45CSsj2xPGRmQUmzAy8dr+/iOsatiEI4vTnbLdMTy8WYly1LsEz0qGgxELcQ+k4GqDRPLHvTMGLMU6dbxCwxViE46rpctizBw7ifOuhEnVZ20JZ0iBDWY+BkkLoIIXU6JZDBvrNs6C7OB3ESQvDS7+/YFo0ghBTH/P6q0i74WHfl581C7L/7IgtBkrqOtqYmXUfwkpl9UdSpg00Vnjm7rJ5rIdjrj2sng7Wn8nQo9vQ5e0Vb0nxztluX9EXRs8OdEgTn8c3ZboAQUuVQBeq1aQVqj59nFHcbuaSE4K249LmtKivytGHsaNogSUf3V5VuAWSwb7Ldc3h5sd9niQjBrDVyNnhfFl0K8vdm5TTPUjAZ9OX3dKheLoTgNEvQD/7q/l/uryq5lcL9VSW4v6qcrAiQO0/X/Prmyd///mc/uMpbcTcyTfAqg8sk2hcmKQRXwbn709dfv3/w3Y8lfZlHKdiT9nNJnUUFO3vb0HMkg1ff/Lb6Yfhd5e8k9fOyWMwKiEP5PjcykcwrMSGYvXpeZFD90Z8+ik4f7q8qnZyIYP/+qtKTdGp/dajlm2oCTzKI1hQkDb3vRrVXi790WjOYcZ3UquBKGIZJp12/cyaDKANJJw5OHlokg7o9CeY9qT62QuK8/66vDPsEzJHBQ15ICjx17LZY7Sof/RWeH1xM8pUhWJYwlnTpVAayX/54xbw8s3qBPamOHpEyBo5lIEmfWbZw4kQGgU0R8iCD66RkkHiGYIPdkPSVQxnMyxZai566KYqgYTf7OptnnlabYd9LlrCmDOaNe5DFxjh76xTI10alzLKDVIRgA99Tiks+HyGDKJeSgrTFYCIINryJr6vNsLbk//eVcxlEGUnqJBnsFov7mh6i086ZCGbZQS3JH5CWEFKrJWwpg4di6C56AscogpYF6GOf5ufVZhhkmSXEIIMod5oWo3sHF5NejBI4sa9nyi/PkxZmKkKwX0pXf66Ue5fBW1aeBWhccrCaxexrL4YbqD4vo7Gi5C9zJINFU4q+zfHHBxeT4Rqx1pBU07RXR0PFaDuXeHaQthD2NT0Ici9HMph38w0jAXq7TBK2XqAeCc56Qk/sy2ozbC24hsREnIIMVk0xom8pajmcAmzC0zTqLKkJwaTQVgI7xlKSgfuAmScnk1LsIs5YBmXj5cHFJJU3Mqk2ez24mHQU8x4HZPCGuQutbI1FgAxyy51SPN05i+7PLWSQCEeLTiuqNsOOYtoJiQxSJ4h7i7MrIVhR6BwZJBM8Sw4maWnLvSXIIHUGllWrsEIwKQTbTB2QwUL2Fk0P7C1EGxnkaqqQ+krOnQw/8MljnljIYCWfLTrTsNoMu3rEUnJkkAmtLPZ6ZCYEmxe1kEEiLEsz25tkZ8ggE17EtSgrTxmC7EOfI4PYOV505oO9dVirnoAMMqsbZHaU/U7Wn97qCZfIIHaCJQepDFfNT5FBJoyUcXv5HScDsTCNRQaPZulBKraI6TkycMNdVnWDKKmuVFzGvAMtkUEsfLxs56adHPUZMshcBo119mmUJUOYHbn25s0DMoiN7rJ/WW2G7dmUDRlkxokHGbgSgklhLKmx+5PX/4UMYuPYzkZYJoXWH//nvX9DBpnw3FHXdD9ThgdpbN2mD3vESywsPEjlwbStq4S3qMM7Muh6uqAdj6NkVfC6/DV7ySuHdkbjqgytpQzPwCxZzeATbzJwmyFEMgXvnXPyFoT1dY6GS2qbOrz5PTS81AxykSFEMoVbTU+8eUkcbc2e1uymZRtqnstZF6gCMJJU9yoD9xnCg2wh0LRzEWzH03WPgrMORn1Ry4mDl3KwziDXGcKDbCGQ9ClPra3T1bUD0p5kNfnqKp1Hzg8uJifeZZCrDCGSKdQ0PfSUusJmbNWlypqZkKFtLuATT68VCycEphCPCsrATk3aCjvNuKtiH2ZaqilCYYRgUljW+xAS6EZlS8wDRZY7wzsCbmW1fbnUQniQLbRF8SsalG07ECURrOCIjN/GXRPbUgohUlsIxEq7FzZFSCUorT9ip+QyHkhqe36dWDohPJhGdJSPTr5xkklPysg0ol3CLO3aRNArygcqnBAiYmho8+apiAAxrCuCwOPSY4RQzqnErCGqCxEsEENL+eywvGpqEOTpNSJCWCyGIgTpyKZDvbRqBDHIYdbUNq9CvtO0eNpJs2EKQki/ztCyQPUuh1n36a7tAs0lOWvJHntLeoSQLznMAtXLK7SBBWQ/zxJYQw4N++6h3jDSdN9Gv2wSQAjLpxUNTc9imH1POlijLeb76248KpggouNdT0nMg8i4D8swHUAI8UiipukGn4b91ez7JrK41rQluywAby0Yxx6Lgk4k0bBxj35J6781io750Ma8L2nMzY8QAGANdhgCAEAIAIAQAAAhAABCAACEAAAIAQAQAgAgBABACACAEAAAIQAAQgAAhAAACAEAEAIAIAQAQAgAgBAAACEAAEIAAIQAAAgBABACACAEAEAIAIAQAAAhAABCAABACACAEAAAIQAAQgAAhAAACAEAEAIAIAQAQAgAgBAAACEAAEIAAIQAAAgBABACACAEAEAIAIAQAAAhAABCAACEAAAIAQAQAgAgBABACACAEAAAIQAAQgAAhAAAgBAAACEAAEIAAIQAAAgBADbn/wGeiccwi3HFyQAAAABJRU5ErkJggg==;" vertex="1" parent="1">
          <mxGeometry x="50" y="708" width="50" height="50" as="geometry" />
        </mxCell>
        <mxCell id="wBUlopVAqguZ6O6uspOy-44" value="App Used by Customers" style="rounded=0;whiteSpace=wrap;html=1;" vertex="1" parent="1">
          <mxGeometry x="695" y="844" width="120" height="60" as="geometry" />
        </mxCell>
        <mxCell id="wBUlopVAqguZ6O6uspOy-45" value="" style="shape=image;verticalLabelPosition=bottom;labelBackgroundColor=default;verticalAlign=top;aspect=fixed;imageAspect=0;image=data:image/webp,UklGRgwNAABXRUJQVlA4WAoAAAAwAAAAcwIAcwIASUNDUFQCAAAAAAJUbGNtcwQwAABtbnRyUkdCIFhZWiAH5QADAAIAEQARAAhhY3NwQVBQTAAAAAAAAAAAAAAAAAAAAAAAAAAAAAAAAAAA9tYAAQAAAADTLWxjbXMAAAAAAAAAAAAAAAAAAAAAAAAAAAAAAAAAAAAAAAAAAAAAAAAAAAAAAAAAAAAAAAtkZXNjAAABCAAAAD5jcHJ0AAABSAAAAEx3dHB0AAABlAAAABRjaGFkAAABqAAAACxyWFlaAAAB1AAAABRiWFlaAAAB6AAAABRnWFlaAAAB/AAAABRyVFJDAAACEAAAACBnVFJDAAACEAAAACBiVFJDAAACEAAAACBjaHJtAAACMAAAACRtbHVjAAAAAAAAAAEAAAAMZW5VUwAAACIAAAAcAHMAUgBHAEIAIABJAEUAQwA2ADEAOQA2ADYALQAyAC4AMQAAbWx1YwAAAAAAAAABAAAADGVuVVMAAAAwAAAAHABOAG8AIABjAG8AcAB5AHIAaQBnAGgAdAAsACAAdQBzAGUAIABmAHIAZQBlAGwAeVhZWiAAAAAAAAD21gABAAAAANMtc2YzMgAAAAAAAQxCAAAF3v//8yUAAAeTAAD9kP//+6H///2iAAAD3AAAwG5YWVogAAAAAAAAb6AAADj1AAADkFhZWiAAAAAAAAAknwAAD4QAALbDWFlaIAAAAAAAAGKXAAC3hwAAGNlwYXJhAAAAAAADAAAAAmZmAADypwAADVkAABPQAAAKW2Nocm0AAAAAAAMAAAAAo9cAAFR7AABMzQAAmZoAACZmAAAPXFZQOEyRCgAAL3PCnBBvoKBtG8b8yp/MLg1FjSQps+Bf4e6BAMbnGUjbJv7u3822KwbABJrahEYzkkz6HQCFUQDk34MDs3O5Zfo33lrfsaDIu3NdFlDBYdA2kqMk/Flf/QIgIiaAX9QGxwSYuapmTli004zvSkfaNkeSkivoitWbaPC6OgJ7Z4sDjCikt8pHVhNjrW4wVUPOWniMuVr0hbhPi6rM/L/vnx+ZEf2Hw0iSIqmqR6dYsHaf+U260ba3kSRY3bVdzbzW3QwmgBVtrmh3RQhnjnfaRwRXqANOWPqimRb4/+97cXZE/+UgkiRJUjTBkmAr/ZuXw+lwa9uWm6iF+63lKWImdQnKaMMlqCRllAr/DeemEf1n2LZtJIs3RO8bwBmuxf8U/1P8T/E/xf8U/1P8T/E/xf8U/1P8z39n8/FB+GxkszwIyx6etlj+DGv9tLJXbh6sJ/xgr2yHjRxabP9mT5vLoSffWyu/9+XQYO6judxLc7mX5nI/zeYQvjOWB2gsD9FUHqSpPEhTeZiGcgQN5QgayjE0k6NoJkexMptDOGkkR9JIjqWNHEsTOZomcjwt5HgayAk0kFNoH6fQPE6ieZxG6ziNxnEijeNU2sapNI3Nxj9CMBt/CcFq/CKEDDSMc9AuzkGzOAvN4jy0ivPQKM5Eo1hF7kN5OBk/qditIL/+ZfwY+Nh88Yb3fod5HoagIL8eT8/LeT7wfm2Yna8V+RrjMF2PvL4Wv0vsjDlHvUJvtv1GHxNbPT6Om/w3yzu+Z3itHR/GnWeWt33f0Fo5PvwSz5t98V+TOitJlyb+Lqd14+mXkcj7fmAonZfka8zJ0BBaNZ5+Hqlc8oPD59ykW7k8HMz4JJmz5xT3+mH+t8vwnOZy9rykyrzjXObvGDFcVow/jXm2ad72MUNlvfjHCGRX5jBmRkQWINcKyDmM6VbFYwkyrYjMwo13E9JYK/45nhKSARg5JNaKv4+nxGQAxg6HleLXI5hDIJci43crCsuQZIXlfBsd28cM1omP4f4X+uvGxw+BpciwojLynCbgW4oLbFDjMgT/31foFiO/YRnKy8T8HXDLkd6ETMNGtwkPBPMMvnrOyBicg2xBrtebm4wYbOm3ECTJ3aCmcgzmPLfxXVxLktycDMJJp1EtyhU79iUKp4FaG6b7X/iXAM3DtCypO/usjMIAiBYmdIOqkvMDg+m2RoCWJrJZGc73/PxOhWdpElfPAhmGIdAsTmAFMg5jgFmeuA2qQsZhECzLk1aJTMCQdqEMQGpTS8EEjOkxkBG6Q62eRTIBowBZDT5cKpIZGAbGEARvUKNnBRkY5msUYxBTuQwdGIR1F8QYpFQnUzAQhJXg6VKDDB0YREKwErxUKHMwFIBRiNig6mTuGZEbnxQ3DIFNnRUkYajT0laBV/XJv79kaeMAKO+oDR4mJ2E0SQPlOW2DmjsryMJoI0kj0VuxNMLIT/4WNBKtVUslDLpNKGYoOlfPcpmGCaSMRV/1Mg0zCBmLtg2qXlph/PhbxGB0lSaXfWR4LGI0euqQAphCwmi07OzNMnyDliO/4UhYBGrOCryQcvz9awh4XKBD8omYNH8n96/PgUdftUtBMSx6m3A7BGaeLnVJCUyT1YjU1iYlME9OI1K7QbVJN8wef+czJPEd+6KBiU5nMyaF9UkNTJXLtLwqQCYPDFLlMShtZ9vKswIRzJXFqBRtUK3SDxXH3zmMSk0pUnWDZlkTphuWknqlCKq0ByHg0rd6Vh0mq2C+VOMyvwh0SxnMl2ZgkjsOsrykz++mGZnJ+qUM5vc4yYR8vNQvdbCCBEMzVYDUwRLijc3EBpUghbBCX0caPG8FdS4FhbBEd+MMnr/CZUghLCLObDxdypKKA4MqooxOTU1nBUpYRoThGdugQqXuxY7Ovf6w8RkpUyZfyVLG6UHjM1CMlMJCBszFq2KkFlbSbwbOFoEcqYWVjHrNwETN/2rEgfrjbyJ/+fLV/ZKkDwLWhET+8uUgWD17DpPFsJgNcxDYUYoaVrNmHn59KUuCoOf4e2UWXhcrRTdoxXq8MguvSpNyWK3LIdBw4LKT51Fu/grP9DFwUg/r9SNN2sBJ/TO4VaA0wILNdeZmyEUlqcyDIQ9xqzjpgEXxELUUdEBwjSYtkFulSQsE12HSAsE1lvTAujFwcbnso+6uMBAlTbAwRbmZcha4ipImWJqa3JtyiFwDSRcsjoGQw2QbLE5FHm05i1zjSBus3g3s4UgbLN8cmxTpg+gaTRoODNBRpBF2oBs3Y17UgmrcG7OJHUMaodh1xFmBE7JrCImBvDenEdIJu+wKLAnSCtk1gPRCeADphY1oxLM5Z7FrLGk4U4bnP0w2w1bUof0/fhO85pZgiPgGM03KX+wIr5ulHTZrjkeztEN6XumH9LpV+iG9ZpUASM8qAbAjHXgAZBO9ZpQEiM+4FCTAlrsy5+cZkVU9QdEnERAfQRpv0PB1l2RAfM0kGc/g55IQ2BczN0guwldNEgL5ec4KkBD55nS3SApsbU7Kl5is4me5O8NAft0hMZBfdUgMNGBVuezDgK6XINgfG4+gnGWA/m8+EASIjHtQDhlQ1ZIIyY/O6rMCFDSgiyUKGlDFEgUdEEsUdKBLJQs6UC0ScmDggFSCYe+b0wzcYHkRCALuYNlA5uf4LAUGZUHXSRpkAc4zLmdZoJM4aEGXSRy0oKokD3qgkjzoQRdJIMQJlhsw3zy7gsoDMJuAgLIA85QHVbIUJEITLBLxYkcPmkIioQdVIZHQBIFkQhNaXjIhlR+zMy/ZkP78l5dQaEJLSygEA8R9oUIXspIK0aDwJTar0IDwiM1FLsgk7AbNhZaTWAhXTmYk9xk2pCQX0u1KRmYkGLpQMxIMbchIMLShxSUZEhLlD+issiEvkQcGiAS5ofOQDTUsF4Lk9/WXk8s+IM2zMCjhkJIMz/Cc5UNQwiEnCe7gOQRKgKXQoREhiYc+tIjEQx9qRP5fQaI/cEckHrJK5VzyoRE1LsEHBkb0qVwA0tKN2wJ5ES7ZuFsgm5zoE7kAFDDN+F8pK0BiiXEil4P0N6f7fbkEJO6jYDwskU3MwuNduQaEFh7vyTUgteh4Ty4CqeXGbZF8C1twvCMXgdwy436RPAUuNN7KVSC4+PhymdwFLjwel8k3+V5Exhu5DEQXGa/lMtCLdiXXgV7UK7kQ9KJf5ELQi3aRC0Ev6kUuBM34t5SVIL8bvP8EoZV/fj70jzeiOtCLiutf+CQLes21w4pTZPmSBz0mowk95jrZiNN02WTDp84Z7cGHk85Z7WHHMfZuYqcpsw8L+8px9nBgpyLN8sO/rZGj7e+gv0474j4/VM/uyHH3+UTtjJ9Ujr5d++FE3WObtt2vnBK92X2u5aHjy+3ivtOnX6wOVe/YyDtck7u+eV2d1M3asTp2+lyNZ7rjpn3azZy+nT6nvu/rvXaR6Vzdnm88b9umZno2utc+3b9fuaOk027Rts0E996v16/UzB1lvTntFp+vrl0NcWPXzV7bLva7mTtqe3PWdYtFu2zTTOo6zxWqm9U1ap8u9rvk+/oIvoaz2bSL6WzZyhmuxf8U/1P8T/E/xf8U/1P8T/E/xf8U/1P8z/+TpAAA;" vertex="1" parent="1">
          <mxGeometry x="735" y="820" width="48" height="48" as="geometry" />
        </mxCell>
        <mxCell id="wBUlopVAqguZ6O6uspOy-46" value="App Used by&amp;nbsp;&lt;br&gt;Developers" style="rounded=0;whiteSpace=wrap;html=1;" vertex="1" parent="1">
          <mxGeometry x="695" y="610" width="120" height="60" as="geometry" />
        </mxCell>
        <mxCell id="wBUlopVAqguZ6O6uspOy-47" value="" style="shape=image;verticalLabelPosition=bottom;labelBackgroundColor=default;verticalAlign=top;aspect=fixed;imageAspect=0;image=data:image/webp,UklGRgwNAABXRUJQVlA4WAoAAAAwAAAAcwIAcwIASUNDUFQCAAAAAAJUbGNtcwQwAABtbnRyUkdCIFhZWiAH5QADAAIAEQARAAhhY3NwQVBQTAAAAAAAAAAAAAAAAAAAAAAAAAAAAAAAAAAA9tYAAQAAAADTLWxjbXMAAAAAAAAAAAAAAAAAAAAAAAAAAAAAAAAAAAAAAAAAAAAAAAAAAAAAAAAAAAAAAAtkZXNjAAABCAAAAD5jcHJ0AAABSAAAAEx3dHB0AAABlAAAABRjaGFkAAABqAAAACxyWFlaAAAB1AAAABRiWFlaAAAB6AAAABRnWFlaAAAB/AAAABRyVFJDAAACEAAAACBnVFJDAAACEAAAACBiVFJDAAACEAAAACBjaHJtAAACMAAAACRtbHVjAAAAAAAAAAEAAAAMZW5VUwAAACIAAAAcAHMAUgBHAEIAIABJAEUAQwA2ADEAOQA2ADYALQAyAC4AMQAAbWx1YwAAAAAAAAABAAAADGVuVVMAAAAwAAAAHABOAG8AIABjAG8AcAB5AHIAaQBnAGgAdAAsACAAdQBzAGUAIABmAHIAZQBlAGwAeVhZWiAAAAAAAAD21gABAAAAANMtc2YzMgAAAAAAAQxCAAAF3v//8yUAAAeTAAD9kP//+6H///2iAAAD3AAAwG5YWVogAAAAAAAAb6AAADj1AAADkFhZWiAAAAAAAAAknwAAD4QAALbDWFlaIAAAAAAAAGKXAAC3hwAAGNlwYXJhAAAAAAADAAAAAmZmAADypwAADVkAABPQAAAKW2Nocm0AAAAAAAMAAAAAo9cAAFR7AABMzQAAmZoAACZmAAAPXFZQOEyRCgAAL3PCnBBvoKBtG8b8yp/MLg1FjSQps+Bf4e6BAMbnGUjbJv7u3822KwbABJrahEYzkkz6HQCFUQDk34MDs3O5Zfo33lrfsaDIu3NdFlDBYdA2kqMk/Flf/QIgIiaAX9QGxwSYuapmTli004zvSkfaNkeSkivoitWbaPC6OgJ7Z4sDjCikt8pHVhNjrW4wVUPOWniMuVr0hbhPi6rM/L/vnx+ZEf2Hw0iSIqmqR6dYsHaf+U260ba3kSRY3bVdzbzW3QwmgBVtrmh3RQhnjnfaRwRXqANOWPqimRb4/+97cXZE/+UgkiRJUjTBkmAr/ZuXw+lwa9uWm6iF+63lKWImdQnKaMMlqCRllAr/DeemEf1n2LZtJIs3RO8bwBmuxf8U/1P8T/E/xf8U/1P8T/E/xf8U/1P8z39n8/FB+GxkszwIyx6etlj+DGv9tLJXbh6sJ/xgr2yHjRxabP9mT5vLoSffWyu/9+XQYO6judxLc7mX5nI/zeYQvjOWB2gsD9FUHqSpPEhTeZiGcgQN5QgayjE0k6NoJkexMptDOGkkR9JIjqWNHEsTOZomcjwt5HgayAk0kFNoH6fQPE6ieZxG6ziNxnEijeNU2sapNI3Nxj9CMBt/CcFq/CKEDDSMc9AuzkGzOAvN4jy0ivPQKM5Eo1hF7kN5OBk/qditIL/+ZfwY+Nh88Yb3fod5HoagIL8eT8/LeT7wfm2Yna8V+RrjMF2PvL4Wv0vsjDlHvUJvtv1GHxNbPT6Om/w3yzu+Z3itHR/GnWeWt33f0Fo5PvwSz5t98V+TOitJlyb+Lqd14+mXkcj7fmAonZfka8zJ0BBaNZ5+Hqlc8oPD59ykW7k8HMz4JJmz5xT3+mH+t8vwnOZy9rykyrzjXObvGDFcVow/jXm2ad72MUNlvfjHCGRX5jBmRkQWINcKyDmM6VbFYwkyrYjMwo13E9JYK/45nhKSARg5JNaKv4+nxGQAxg6HleLXI5hDIJci43crCsuQZIXlfBsd28cM1omP4f4X+uvGxw+BpciwojLynCbgW4oLbFDjMgT/31foFiO/YRnKy8T8HXDLkd6ETMNGtwkPBPMMvnrOyBicg2xBrtebm4wYbOm3ECTJ3aCmcgzmPLfxXVxLktycDMJJp1EtyhU79iUKp4FaG6b7X/iXAM3DtCypO/usjMIAiBYmdIOqkvMDg+m2RoCWJrJZGc73/PxOhWdpElfPAhmGIdAsTmAFMg5jgFmeuA2qQsZhECzLk1aJTMCQdqEMQGpTS8EEjOkxkBG6Q62eRTIBowBZDT5cKpIZGAbGEARvUKNnBRkY5msUYxBTuQwdGIR1F8QYpFQnUzAQhJXg6VKDDB0YREKwErxUKHMwFIBRiNig6mTuGZEbnxQ3DIFNnRUkYajT0laBV/XJv79kaeMAKO+oDR4mJ2E0SQPlOW2DmjsryMJoI0kj0VuxNMLIT/4WNBKtVUslDLpNKGYoOlfPcpmGCaSMRV/1Mg0zCBmLtg2qXlph/PhbxGB0lSaXfWR4LGI0euqQAphCwmi07OzNMnyDliO/4UhYBGrOCryQcvz9awh4XKBD8omYNH8n96/PgUdftUtBMSx6m3A7BGaeLnVJCUyT1YjU1iYlME9OI1K7QbVJN8wef+czJPEd+6KBiU5nMyaF9UkNTJXLtLwqQCYPDFLlMShtZ9vKswIRzJXFqBRtUK3SDxXH3zmMSk0pUnWDZlkTphuWknqlCKq0ByHg0rd6Vh0mq2C+VOMyvwh0SxnMl2ZgkjsOsrykz++mGZnJ+qUM5vc4yYR8vNQvdbCCBEMzVYDUwRLijc3EBpUghbBCX0caPG8FdS4FhbBEd+MMnr/CZUghLCLObDxdypKKA4MqooxOTU1nBUpYRoThGdugQqXuxY7Ovf6w8RkpUyZfyVLG6UHjM1CMlMJCBszFq2KkFlbSbwbOFoEcqYWVjHrNwETN/2rEgfrjbyJ/+fLV/ZKkDwLWhET+8uUgWD17DpPFsJgNcxDYUYoaVrNmHn59KUuCoOf4e2UWXhcrRTdoxXq8MguvSpNyWK3LIdBw4LKT51Fu/grP9DFwUg/r9SNN2sBJ/TO4VaA0wILNdeZmyEUlqcyDIQ9xqzjpgEXxELUUdEBwjSYtkFulSQsE12HSAsE1lvTAujFwcbnso+6uMBAlTbAwRbmZcha4ipImWJqa3JtyiFwDSRcsjoGQw2QbLE5FHm05i1zjSBus3g3s4UgbLN8cmxTpg+gaTRoODNBRpBF2oBs3Y17UgmrcG7OJHUMaodh1xFmBE7JrCImBvDenEdIJu+wKLAnSCtk1gPRCeADphY1oxLM5Z7FrLGk4U4bnP0w2w1bUof0/fhO85pZgiPgGM03KX+wIr5ulHTZrjkeztEN6XumH9LpV+iG9ZpUASM8qAbAjHXgAZBO9ZpQEiM+4FCTAlrsy5+cZkVU9QdEnERAfQRpv0PB1l2RAfM0kGc/g55IQ2BczN0guwldNEgL5ec4KkBD55nS3SApsbU7Kl5is4me5O8NAft0hMZBfdUgMNGBVuezDgK6XINgfG4+gnGWA/m8+EASIjHtQDhlQ1ZIIyY/O6rMCFDSgiyUKGlDFEgUdEEsUdKBLJQs6UC0ScmDggFSCYe+b0wzcYHkRCALuYNlA5uf4LAUGZUHXSRpkAc4zLmdZoJM4aEGXSRy0oKokD3qgkjzoQRdJIMQJlhsw3zy7gsoDMJuAgLIA85QHVbIUJEITLBLxYkcPmkIioQdVIZHQBIFkQhNaXjIhlR+zMy/ZkP78l5dQaEJLSygEA8R9oUIXspIK0aDwJTar0IDwiM1FLsgk7AbNhZaTWAhXTmYk9xk2pCQX0u1KRmYkGLpQMxIMbchIMLShxSUZEhLlD+issiEvkQcGiAS5ofOQDTUsF4Lk9/WXk8s+IM2zMCjhkJIMz/Cc5UNQwiEnCe7gOQRKgKXQoREhiYc+tIjEQx9qRP5fQaI/cEckHrJK5VzyoRE1LsEHBkb0qVwA0tKN2wJ5ES7ZuFsgm5zoE7kAFDDN+F8pK0BiiXEil4P0N6f7fbkEJO6jYDwskU3MwuNduQaEFh7vyTUgteh4Ty4CqeXGbZF8C1twvCMXgdwy436RPAUuNN7KVSC4+PhymdwFLjwel8k3+V5Exhu5DEQXGa/lMtCLdiXXgV7UK7kQ9KJf5ELQi3aRC0Ev6kUuBM34t5SVIL8bvP8EoZV/fj70jzeiOtCLiutf+CQLes21w4pTZPmSBz0mowk95jrZiNN02WTDp84Z7cGHk85Z7WHHMfZuYqcpsw8L+8px9nBgpyLN8sO/rZGj7e+gv0474j4/VM/uyHH3+UTtjJ9Ujr5d++FE3WObtt2vnBK92X2u5aHjy+3ivtOnX6wOVe/YyDtck7u+eV2d1M3asTp2+lyNZ7rjpn3azZy+nT6nvu/rvXaR6Vzdnm88b9umZno2utc+3b9fuaOk027Rts0E996v16/UzB1lvTntFp+vrl0NcWPXzV7bLva7mTtqe3PWdYtFu2zTTOo6zxWqm9U1ap8u9rvk+/oIvoaz2bSL6WzZyhmuxf8U/1P8T/E/xf8U/1P8T/E/xf8U/1P8z/+TpAAA;" vertex="1" parent="1">
          <mxGeometry x="735" y="586" width="48" height="48" as="geometry" />
        </mxCell>
        <mxCell id="wBUlopVAqguZ6O6uspOy-53" style="edgeStyle=orthogonalEdgeStyle;rounded=0;orthogonalLoop=1;jettySize=auto;html=1;entryX=0;entryY=0.5;entryDx=0;entryDy=0;" edge="1" parent="1" source="wBUlopVAqguZ6O6uspOy-48" target="wBUlopVAqguZ6O6uspOy-46">
          <mxGeometry relative="1" as="geometry" />
        </mxCell>
        <mxCell id="wBUlopVAqguZ6O6uspOy-64" style="edgeStyle=orthogonalEdgeStyle;rounded=0;orthogonalLoop=1;jettySize=auto;html=1;entryX=0.5;entryY=0;entryDx=0;entryDy=0;" edge="1" parent="1" source="wBUlopVAqguZ6O6uspOy-48" target="wBUlopVAqguZ6O6uspOy-49">
          <mxGeometry relative="1" as="geometry" />
        </mxCell>
        <mxCell id="wBUlopVAqguZ6O6uspOy-48" value="None" style="rounded=0;whiteSpace=wrap;html=1;" vertex="1" parent="1">
          <mxGeometry x="555" y="610" width="90" height="60" as="geometry" />
        </mxCell>
        <mxCell id="wBUlopVAqguZ6O6uspOy-65" style="edgeStyle=orthogonalEdgeStyle;rounded=0;orthogonalLoop=1;jettySize=auto;html=1;entryX=0.5;entryY=0;entryDx=0;entryDy=0;" edge="1" parent="1" source="wBUlopVAqguZ6O6uspOy-49" target="wBUlopVAqguZ6O6uspOy-51">
          <mxGeometry relative="1" as="geometry" />
        </mxCell>
        <mxCell id="wBUlopVAqguZ6O6uspOy-49" value="Staging" style="rounded=0;whiteSpace=wrap;html=1;" vertex="1" parent="1">
          <mxGeometry x="555" y="734" width="90" height="60" as="geometry" />
        </mxCell>
        <mxCell id="wBUlopVAqguZ6O6uspOy-52" style="edgeStyle=orthogonalEdgeStyle;rounded=0;orthogonalLoop=1;jettySize=auto;html=1;entryX=0;entryY=0.5;entryDx=0;entryDy=0;" edge="1" parent="1" source="wBUlopVAqguZ6O6uspOy-51" target="wBUlopVAqguZ6O6uspOy-44">
          <mxGeometry relative="1" as="geometry" />
        </mxCell>
        <mxCell id="wBUlopVAqguZ6O6uspOy-51" value="Production" style="rounded=0;whiteSpace=wrap;html=1;" vertex="1" parent="1">
          <mxGeometry x="555" y="844" width="90" height="60" as="geometry" />
        </mxCell>
        <mxCell id="wBUlopVAqguZ6O6uspOy-55" value="App Deployment" style="rounded=0;whiteSpace=wrap;html=1;" vertex="1" parent="1">
          <mxGeometry x="565" y="410" width="120" height="60" as="geometry" />
        </mxCell>
        <mxCell id="wBUlopVAqguZ6O6uspOy-58" style="edgeStyle=orthogonalEdgeStyle;rounded=0;orthogonalLoop=1;jettySize=auto;html=1;entryX=1;entryY=0.5;entryDx=0;entryDy=0;" edge="1" parent="1" source="wBUlopVAqguZ6O6uspOy-56" target="wBUlopVAqguZ6O6uspOy-44">
          <mxGeometry relative="1" as="geometry" />
        </mxCell>
        <mxCell id="wBUlopVAqguZ6O6uspOy-59" style="edgeStyle=orthogonalEdgeStyle;rounded=0;orthogonalLoop=1;jettySize=auto;html=1;entryX=1;entryY=0.5;entryDx=0;entryDy=0;" edge="1" parent="1" source="wBUlopVAqguZ6O6uspOy-56" target="wBUlopVAqguZ6O6uspOy-35">
          <mxGeometry relative="1" as="geometry" />
        </mxCell>
        <mxCell id="wBUlopVAqguZ6O6uspOy-60" value="Branching Strategy for App Code" style="edgeStyle=orthogonalEdgeStyle;rounded=0;orthogonalLoop=1;jettySize=auto;html=1;entryX=1;entryY=0.5;entryDx=0;entryDy=0;" edge="1" parent="1" source="wBUlopVAqguZ6O6uspOy-56" target="wBUlopVAqguZ6O6uspOy-46">
          <mxGeometry x="-0.6327" relative="1" as="geometry">
            <mxPoint as="offset" />
          </mxGeometry>
        </mxCell>
        <mxCell id="wBUlopVAqguZ6O6uspOy-56" value="App Deployment&lt;br&gt;CD" style="rounded=0;whiteSpace=wrap;html=1;" vertex="1" parent="1">
          <mxGeometry x="540" y="1014" width="120" height="60" as="geometry" />
        </mxCell>
      </root>
    </mxGraphModel>
  </diagram>
</mxfile>
